<?xml version="1.0" encoding="UTF-8"?>
<svg version="1.1" xmlns="http://www.w3.org/2000/svg" width="1024" height="1536">
<path d="M0 0 C337.92 0 675.84 0 1024 0 C1024 506.88 1024 1013.76 1024 1536 C686.08 1536 348.16 1536 0 1536 C0 1029.12 0 522.24 0 0 Z " fill="#F4F4F4" transform="translate(0,0)"/>
<path d="M0 0 C1.8257877 -0.00258738 3.65157484 -0.00560157 5.4773612 -0.0090034 C10.47408498 -0.01703337 15.47079435 -0.01886074 20.46752381 -0.01960087 C25.86531089 -0.02145852 31.26309062 -0.02900958 36.66087341 -0.03573608 C48.45711224 -0.04929323 60.25334765 -0.05534054 72.04959297 -0.05974674 C79.42581885 -0.06251459 86.80204343 -0.06675302 94.17826843 -0.07125092 C114.62946744 -0.08344203 135.08066542 -0.09374044 155.53186798 -0.09712601 C157.49373073 -0.09745536 157.49373073 -0.09745536 159.49522707 -0.09779136 C161.4616151 -0.09811878 161.4616151 -0.09811878 163.46772814 -0.09845281 C166.12387117 -0.09889626 168.7800142 -0.09934282 171.43615723 -0.09979248 C172.7536779 -0.10001391 174.07119858 -0.10023534 175.42864412 -0.10046348 C196.74602547 -0.10440598 218.06336738 -0.12184398 239.38073748 -0.145152 C261.30458804 -0.16892809 283.22842145 -0.18133076 305.1522851 -0.18249393 C317.44630458 -0.18340738 329.7402794 -0.18907572 342.0342865 -0.20731354 C352.50975102 -0.22279946 362.98515709 -0.22778546 373.46063089 -0.21957543 C378.79459815 -0.21569826 384.12844802 -0.21645285 389.46240044 -0.23063278 C445.46540175 -0.37059439 495.35558773 6.56270128 536.96496582 47.14044189 C574.87332628 84.93427559 582.12319947 135.58936299 582.23262739 186.70905912 C582.23765419 191.24309271 582.23266134 195.77708848 582.22641516 200.31111848 C582.22182786 205.25264471 582.2289051 210.1941577 582.234375 215.13568115 C582.24320526 224.78061472 582.24137548 234.42551692 582.23554972 244.07045165 C582.23100714 251.92046164 582.23043146 259.77046293 582.23259735 267.62047386 C582.23290382 268.74370091 582.23321028 269.86692795 582.23352604 271.02419218 C582.23416558 273.30703909 582.23481401 275.589886 582.23547122 277.8727329 C582.24115607 299.21231066 582.23464612 320.55187115 582.22387049 341.89144608 C582.21494035 360.14006205 582.2164862 378.38865256 582.22570801 396.63726807 C582.23644975 417.90312483 582.24060308 439.1689665 582.23448348 460.4348256 C582.23384648 462.70953794 582.23321774 464.98425028 582.23259735 467.25896263 C582.2322888 468.3777334 582.23198025 469.49650417 582.23166235 470.64917708 C582.2299468 478.47406665 582.23282576 486.29894654 582.23755646 494.12383461 C582.24320907 503.68246512 582.24155812 513.24106286 582.23099497 522.79968969 C582.22579591 527.66209616 582.22358085 532.5244483 582.23029327 537.38685417 C582.30506173 596.73256295 578.74149878 654.84764229 535.96496582 700.14044189 C535.2198877 700.94997314 534.47480957 701.75950439 533.70715332 702.59356689 C504.26758515 733.49053943 462.51526568 745.95077727 420.88039756 747.20314527 C415.7641025 747.30944352 410.64737292 747.32699589 405.53015137 747.34576416 C403.82939092 747.35538312 402.12863262 747.36538698 400.42787647 747.37573719 C395.79645696 747.40268781 391.16502757 747.42380892 386.53357315 747.44372702 C382.54406767 747.46158131 378.55458221 747.48273828 374.56509292 747.50386429 C361.40769214 747.57344304 348.25025084 747.63157458 335.09278822 747.68801069 C330.51080556 747.70789677 325.92882707 747.72866071 321.34684843 747.74944991 C249.23797849 748.07625923 177.12883587 748.27125682 105.01923794 748.3190971 C96.59337385 748.32506045 88.16752487 748.33590191 79.7416687 748.34872437 C69.43363525 748.36419509 59.12562839 748.37196184 48.81758296 748.37019205 C43.56006496 748.36939934 38.30259781 748.37150838 33.04508972 748.38231277 C-16.91378935 748.47883488 -65.13704037 746.84673694 -106.03503418 714.14044189 C-106.61833496 713.67525146 -107.20163574 713.21006104 -107.8026123 712.73077393 C-144.81488877 682.85543858 -161.63710976 642.30561257 -167.30873752 595.901034 C-168.22160369 587.14828821 -168.18064376 578.41114248 -168.17547607 569.6234436 C-168.17806366 567.8539777 -168.18107791 566.08451238 -168.18447948 564.31504786 C-168.19250686 559.4740848 -168.19433666 554.63313659 -168.19507694 549.79216766 C-168.19693502 544.56210945 -168.20448625 539.33205881 -168.21121216 534.102005 C-168.22476699 522.67365736 -168.23081612 511.24531324 -168.23522282 499.8169589 C-168.23799079 492.67124196 -168.24222922 485.52552637 -168.24672699 478.37981033 C-168.25891731 458.56855288 -168.2692162 438.7572965 -168.27260208 418.94603539 C-168.27293143 417.04573779 -168.27293143 417.04573779 -168.27326743 415.10705034 C-168.27348571 413.83726334 -168.27370399 412.56747634 -168.27392888 411.25921094 C-168.27437234 408.68641814 -168.2748189 406.11362533 -168.27526855 403.54083252 C-168.27548998 402.26465583 -168.27571141 400.98847914 -168.27593955 399.67363043 C-168.27988284 379.02095073 -168.2973236 358.3683064 -168.32062808 337.71564035 C-168.3443993 316.47658692 -168.3568066 295.23755119 -168.35797 273.99848425 C-168.35888367 262.08794261 -168.36455768 250.17744706 -168.38278961 238.26691818 C-168.39826888 228.11931226 -168.40326535 217.97176665 -168.39505151 207.82415114 C-168.39117216 202.65650213 -168.39193996 197.48897429 -168.40610886 192.32134056 C-168.55111948 136.16623307 -160.4398085 88.56554651 -121.03503418 46.14044189 C-120.44593262 45.48559814 -119.85683105 44.83075439 -119.24987793 44.15606689 C-88.49140113 11.43715971 -43.35170974 -0.02468745 0 0 Z " fill="#4F94F9" transform="translate(305.0350341796875,362.85955810546875)"/>
<path d="M0 0 C0.98608749 0.00636726 0.98608749 0.00636726 1.99209595 0.01286316 C4.07068641 0.02951898 6.14827024 0.06714255 8.2265625 0.10546875 C9.64451714 0.1205327 11.06248714 0.1342181 12.48046875 0.14648438 C15.9378214 0.17937837 19.39459353 0.2310671 22.8515625 0.29296875 C22.90461548 1.85084106 22.90461548 1.85084106 22.95874023 3.44018555 C23.36360406 13.83030615 24.55145104 23.86401385 32.00390625 31.79296875 C38.9927656 37.4667996 46.47817366 39.44087986 55.27929688 39.4699707 C56.13988708 39.4765419 57.00047729 39.4831131 57.887146 39.48988342 C60.73986908 39.50961689 63.59253936 39.52128259 66.4453125 39.53125 C67.42176224 39.53532553 68.39821198 39.53940105 69.4042511 39.54360008 C74.57809233 39.56446659 79.75190704 39.57876266 84.92578125 39.58813477 C90.25068593 39.59916675 95.57516899 39.63352784 100.89992523 39.67330647 C105.00940688 39.69955797 109.11878967 39.70783444 113.22834778 39.71141624 C115.18979217 39.71626455 117.15123266 39.72782798 119.1125946 39.74645424 C136.08181463 39.99028574 136.08181463 39.99028574 151.2890625 33.04296875 C156.274083 27.69319065 158.81034067 21.50952928 159.1328125 14.21875 C159.17019531 13.46916016 159.20757813 12.71957031 159.24609375 11.94726562 C159.31693297 10.37437259 159.3872377 8.8014554 159.45703125 7.22851562 C159.74945974 1.39507151 159.74945974 1.39507151 160.8515625 0.29296875 C165.01025798 -0.01927796 169.18260913 0.01430766 173.3515625 -0.01953125 C174.51171875 -0.04853516 175.671875 -0.07753906 176.8671875 -0.10742188 C185.82976596 -0.17332319 191.66281723 1.55417377 199.1015625 6.41796875 C208.60500569 16.35338663 207.56066951 27.63886014 207.48266602 40.55664062 C207.4878091 42.71920864 207.49509331 44.88177246 207.50434875 47.04432678 C207.52282106 52.8976839 207.50995017 58.75058395 207.49025846 64.60392189 C207.47383638 70.73981862 207.48268981 76.87568721 207.48777771 83.01159668 C207.49229467 93.31428298 207.4764533 103.6167875 207.44848633 113.91943359 C207.41643641 125.81765265 207.41645159 137.71554389 207.4337011 149.61378622 C207.44958446 161.07635182 207.44282092 172.53879765 207.42576408 184.00135803 C207.41890531 188.87194522 207.41991403 193.74243606 207.42730904 198.61302185 C207.43499019 204.35219506 207.42278559 210.09099679 207.39546013 215.83010674 C207.38859447 217.93190344 207.38845871 220.03373495 207.39567566 222.13553047 C207.46309778 244.33478766 207.46309778 244.33478766 200.9921875 252.6953125 C200.36828125 253.20191406 199.744375 253.70851563 199.1015625 254.23046875 C198.48796875 254.75511719 197.874375 255.27976562 197.2421875 255.8203125 C191.24806622 259.51276956 185.62416813 260.73896488 178.661026 260.6806488 C177.87649864 260.68603434 177.09197128 260.69141988 176.28367037 260.69696862 C173.67601078 260.71118397 171.06886344 260.70416056 168.46118164 260.69702148 C166.5829986 260.70272841 164.70481903 260.70969391 162.8266449 260.71781921 C157.73984949 260.73572977 152.65322679 260.73458622 147.56640935 260.72887683 C143.31444704 260.72578205 139.06251777 260.73188063 134.81056017 260.73791558 C124.77740593 260.75195219 114.74433686 260.75040658 104.71118164 260.73901367 C94.37168225 260.72753212 84.03244223 260.7416108 73.69297701 260.76841015 C64.80440735 260.79058349 55.91591901 260.79720086 47.02732366 260.79133373 C41.72356194 260.78796703 36.41996649 260.79036036 31.1162281 260.80758476 C26.12810643 260.8230779 21.14036838 260.81907197 16.15226173 260.80027962 C14.32578351 260.79660037 12.49927671 260.79968279 10.67282486 260.81016541 C-7.12193493 260.90446795 -7.12193493 260.90446795 -14.1484375 256.29296875 C-14.99495078 255.75591639 -14.99495078 255.75591639 -15.85856533 255.20801449 C-21.01274242 251.46053799 -23.19623781 246.14956783 -25.1484375 240.29296875 C-25.25112559 237.40328712 -25.29624248 234.53745163 -25.29560852 231.64744568 C-25.29928521 230.75355654 -25.3029619 229.85966741 -25.30675 228.93869072 C-25.31779919 225.93104522 -25.32163281 222.92343426 -25.32543945 219.91577148 C-25.33170327 217.76409291 -25.33834999 215.61241543 -25.34535217 213.46073914 C-25.36277165 207.60506395 -25.37331696 201.74939695 -25.3815577 195.89370227 C-25.38670684 192.23502698 -25.39278267 188.57635424 -25.39906883 184.91768074 C-25.41812528 173.47008518 -25.43235433 162.02249607 -25.4406808 150.57488769 C-25.45044981 137.36199364 -25.47675882 124.14926727 -25.51718169 110.9364323 C-25.54735244 100.72398437 -25.56215067 90.51158446 -25.56546181 80.29909283 C-25.56781157 74.19987845 -25.5767623 68.10084311 -25.60192299 62.00167656 C-25.62522469 56.2601915 -25.6294283 50.51900309 -25.61916161 44.77748299 C-25.61866662 42.67405841 -25.62497601 40.57061913 -25.63871765 38.46723938 C-25.77690438 16.05512894 -25.77690438 16.05512894 -19.21875 7.890625 C-18.57679688 7.38402344 -17.93484375 6.87742187 -17.2734375 6.35546875 C-16.63664063 5.83082031 -15.99984375 5.30617188 -15.34375 4.765625 C-10.14924578 1.28105544 -6.29329843 -0.08068331 0 0 Z " fill="#FEFEFE" transform="translate(556.1484375,647.70703125)"/>
<path d="M0 0 C0.89691055 0.37410004 1.79382111 0.74820007 2.71791077 1.13363647 C4.65217653 1.9413523 6.58492654 2.75270566 8.51629639 3.56732178 C12.63604616 5.30472981 16.76315471 7.02430908 20.89007568 8.74459839 C23.02051307 9.63269291 25.15059629 10.5216375 27.28033447 11.41140747 C37.69119801 15.75732686 48.14266091 19.99974407 58.60546875 24.21875 C60.34695213 24.92172351 62.08840739 25.62476668 63.82983398 26.32788086 C66.37144747 27.35397996 68.91310742 28.37996265 71.45497131 29.40544128 C76.89361754 31.6000276 82.32904488 33.80239077 87.76171875 36.01171875 C88.47122177 36.30021698 89.18072479 36.58871521 89.91172791 36.88595581 C93.28230388 38.25687129 96.65233363 39.62911404 100.02172852 41.00292969 C105.68106937 43.3083253 111.3458859 45.59558636 117.0390625 47.81640625 C117.98152832 48.18564209 118.92399414 48.55487793 119.89501953 48.93530273 C121.5898886 49.59677985 123.2872767 50.25186054 124.98779297 50.89868164 C128.54138113 52.28659249 131.23545047 53.43538351 133.73046875 56.34375 C134.1640625 58.28125 134.1640625 58.28125 134.16796875 60.34375 C134.19697266 61.3646875 134.19697266 61.3646875 134.2265625 62.40625 C133.73046875 64.34375 133.73046875 64.34375 129.73046875 67.34375 C126.43046875 68.33375 123.13046875 69.32375 119.73046875 70.34375 C119.73046875 84.53375 119.73046875 98.72375 119.73046875 113.34375 C121.05046875 114.00375 122.37046875 114.66375 123.73046875 115.34375 C127.2065026 118.69345222 128.19542765 121.18608362 128.28625488 126.01712036 C128.2741095 127.07985672 128.2741095 127.07985672 128.26171875 128.1640625 C128.26554565 128.90453827 128.26937256 129.64501404 128.27331543 130.40792847 C128.27602718 131.9661394 128.26871754 133.52439642 128.25195312 135.08251953 C128.2304683 137.46880024 128.25180725 139.85209169 128.27734375 142.23828125 C128.27470153 143.75521497 128.26957874 145.27214684 128.26171875 146.7890625 C128.26981567 147.50160187 128.2779126 148.21414124 128.28625488 148.94827271 C128.22690095 152.07558984 128.1253108 153.89281729 126.02734375 156.28881836 C121.63071286 158.30814681 116.98672876 157.81350577 112.23046875 157.78125 C111.18503906 157.80123047 110.13960937 157.82121094 109.0625 157.84179688 C108.05574219 157.84115234 107.04898437 157.84050781 106.01171875 157.83984375 C105.09455078 157.84169678 104.17738281 157.8435498 103.23242188 157.84545898 C99.8390972 157.165006 98.71933522 156.1671079 96.73046875 153.34375 C96.21289062 150.04736328 96.21289062 150.04736328 96.19921875 146.1640625 C96.19539185 145.47367889 96.19156494 144.78329529 96.18762207 144.07199097 C96.1849063 142.61454812 96.19224434 141.15705626 96.20898438 139.69970703 C96.23033849 137.48227652 96.20921051 135.26810926 96.18359375 133.05078125 C96.18623837 131.63020125 96.19136612 130.20962326 96.19921875 128.7890625 C96.20373047 127.50531738 96.20824219 126.22157227 96.21289062 124.89892578 C96.8188541 120.7366427 98.10048189 118.59069887 100.73046875 115.34375 C102.21546875 114.35375 102.21546875 114.35375 103.73046875 113.34375 C104.06824024 110.58474243 104.21944854 108.03891743 104.2421875 105.2734375 C104.2601387 104.47720978 104.2780899 103.68098206 104.29658508 102.86062622 C104.35083844 100.3133883 104.38463087 97.76633929 104.41796875 95.21875 C104.45112868 93.4934632 104.48561709 91.76820139 104.52148438 90.04296875 C104.6065731 85.81003187 104.67331182 81.57715247 104.73046875 77.34375 C94.38806721 81.54909541 84.11715487 85.87951869 73.91949463 90.42440796 C59.82388295 96.70276355 45.67848463 102.86085132 31.47558594 108.89257812 C30.03443383 109.50504041 28.59335254 110.11766936 27.15234375 110.73046875 C26.09632965 111.17953079 26.09632965 111.17953079 25.01898193 111.63766479 C20.86058898 113.41308627 16.72432574 115.23088235 12.60391235 117.09272766 C10.04339825 118.24920138 7.47668719 119.39154639 4.90960693 120.53335571 C3.1649885 121.31701454 1.43017098 122.1223808 -0.30419922 122.9284668 C-8.52599761 126.57400491 -13.18496749 127.22791552 -21.60058594 124.109375 C-24.97327729 122.76286483 -28.29484674 121.31092895 -31.61172485 119.83300781 C-33.90206708 118.81254553 -36.19844883 117.80691195 -38.49682617 116.8046875 C-41.77379789 115.37521684 -45.04859869 113.94092749 -48.32226562 112.50390625 C-55.41418478 109.39871685 -62.5434218 106.38197571 -69.67282104 103.36410522 C-73.79651412 101.61762758 -77.91755073 99.86489869 -82.0390625 98.11328125 C-88.0857348 95.54443124 -94.13309714 92.97721358 -100.18115234 90.41162109 C-105.71318814 88.06479226 -111.24445786 85.71617011 -116.77491093 83.36561394 C-119.80758361 82.07676414 -122.84076216 80.78912736 -125.87466431 79.50317383 C-129.27812363 78.0604559 -132.68021378 76.61455298 -136.08203125 75.16796875 C-137.09492722 74.73949142 -138.10782318 74.3110141 -139.15141296 73.86955261 C-155.17604435 67.04300629 -155.17604435 67.04300629 -158.26953125 63.34375 C-158.70703125 60.40625 -158.70703125 60.40625 -158.26953125 57.34375 C-155.71042217 54.32976 -153.28317082 52.6325848 -149.67578125 51.07421875 C-148.74781738 50.66872803 -147.81985352 50.2632373 -146.86376953 49.84545898 C-145.8426709 49.41177002 -144.82157227 48.97808105 -143.76953125 48.53125 C-142.12766846 47.82174194 -142.12766846 47.82174194 -140.45263672 47.09790039 C-127.26179973 41.42633248 -113.99133155 35.94039876 -100.72763062 30.44207764 C-92.85359496 27.17572785 -84.99212737 23.87963805 -77.13134766 20.58154297 C-73.48921822 19.05369676 -69.84567008 17.5293182 -66.20068359 16.00830078 C-64.40331001 15.25816271 -62.60594667 14.50800009 -60.80859375 13.7578125 C-59.92734833 13.39003693 -59.04610291 13.02226135 -58.13815308 12.64334106 C-52.97395121 10.48476311 -47.82025531 8.30330886 -42.67507935 6.09977722 C-39.53133847 4.75580396 -36.38232728 3.42450575 -33.23223877 2.0954895 C-31.77454868 1.47673619 -30.31934181 0.85209473 -28.86688232 0.22116089 C-26.87701615 -0.64264409 -24.87945997 -1.48552767 -22.87890625 -2.32421875 C-21.76483398 -2.80141357 -20.65076172 -3.2786084 -19.50292969 -3.77026367 C-12.43857621 -5.70597333 -6.42851369 -2.73875629 0 0 Z " fill="#FEFEFE" transform="translate(460.26953125,429.65625)"/>
<path d="M0 0 C1.16796875 2.54296875 1.16796875 2.54296875 2.1875 6.1875 C2.38762695 6.87529541 2.58775391 7.56309082 2.79394531 8.27172852 C3.26491934 9.89083029 3.72864699 11.51204911 4.18701172 13.13476562 C5.82743194 18.9161385 7.53677725 24.67735304 9.25 30.4375 C9.44026764 31.07851654 9.63053528 31.71953308 9.8265686 32.37997437 C12.59539256 41.67848087 15.58554642 50.8696577 18.875 60 C19.24399414 61.02536865 19.61298828 62.0507373 19.99316406 63.10717773 C22.884859 71.70408338 22.884859 71.70408338 28 79 C32.45294515 79.89058903 34.6815879 79.83990725 38.55078125 77.375 C41.46727124 75.01141911 44.24107817 72.54584931 47 70 C48.02929007 69.06568102 49.05924634 68.13209547 50.08984375 67.19921875 C52.13249786 65.34138537 54.1657503 63.47400422 56.19140625 61.59765625 C58.65500375 59.31908554 61.12463185 57.05062338 63.625 54.8125 C64.23601562 54.26207031 64.84703125 53.71164062 65.4765625 53.14453125 C67 52 67 52 69 52 C69 94.9 69 137.8 69 182 C59.02826299 182 49.24338906 181.83099543 39.3125 181.25 C38.20891647 181.18614609 38.20891647 181.18614609 37.08303833 181.1210022 C0.73895454 178.98095867 -35.40557265 175.25045116 -71.1875 168.4375 C-72.19119629 168.25195557 -73.19489258 168.06641113 -74.22900391 167.87524414 C-81.46415638 166.4182956 -87.79039581 164.44201594 -92.3125 158.1875 C-92.78300781 157.56230469 -93.25351562 156.93710937 -93.73828125 156.29296875 C-96.62778075 151.04177306 -97.25213473 145.81284338 -97.171875 139.90234375 C-97.16387878 139.22203598 -97.15588257 138.54172821 -97.14764404 137.84080505 C-97.11381314 135.55994271 -97.05969598 133.28032777 -97 131 C-96.96918335 129.77062714 -96.96918335 129.77062714 -96.93774414 128.51641846 C-96.79369809 123.12712241 -96.59578374 117.74148136 -96.36523438 112.35522461 C-96.28849682 110.49547706 -96.2188187 108.63542462 -96.15625 106.77514648 C-95.1650886 77.41457112 -86.9216563 54.21674313 -66 33 C-65.22011719 32.20722656 -64.44023437 31.41445313 -63.63671875 30.59765625 C-53.22982676 20.6455192 -14.83087062 -7.22224762 0 0 Z " fill="#FEFEFE" transform="translate(369,717)"/>
<path d="M0 0 C10.57879138 4.18455828 21.12597169 8.38833156 31.5 13.0625 C33.60339628 13.98873062 35.70761803 14.91308813 37.8125 15.8359375 C41.66767896 17.52724891 45.51669233 19.22980293 49.35546875 20.95800781 C53.27390156 22.7198397 57.20643152 24.44687397 61.14770508 26.1569519 C62.69024061 26.83274176 64.22808994 27.51935339 65.76049805 28.21780396 C78.08461136 33.82320994 90.24996375 37.11513307 103.5546875 32.3671875 C105.3421024 31.56697534 107.11516443 30.73416836 108.875 29.875 C111.0603732 28.88489639 113.24666796 27.89682578 115.43359375 26.91015625 C116.05011307 26.62639633 116.66663239 26.34263641 117.30183411 26.05027771 C127.25889051 21.4679583 137.3469998 17.1779673 147.41094971 12.83721924 C150.91708227 11.3213277 154.4185996 9.79517235 157.91943359 8.26708984 C160.10114707 7.31977988 162.28294676 6.37266846 164.46484375 5.42578125 C165.48248306 4.97939804 166.50012238 4.53301483 167.54859924 4.07310486 C168.48638718 3.66782059 169.42417511 3.26253632 170.39038086 2.8449707 C171.6217704 2.30849663 171.6217704 2.30849663 172.8780365 1.76118469 C175 1 175 1 178 1 C177.99476318 2.29623291 177.98952637 3.59246582 177.98413086 4.92797852 C177.96597237 9.75674748 177.95452842 14.58551345 177.94506836 19.41430664 C177.9400529 21.50057483 177.93323895 23.58683953 177.92456055 25.6730957 C177.91237264 28.67920801 177.90674369 31.68527366 177.90234375 34.69140625 C177.89718246 35.61772354 177.89202118 36.54404083 177.88670349 37.49842834 C177.88627922 42.44367899 178.23557902 47.10242372 179 52 C180.69036288 82.58740768 175.1042709 106.36502457 154.8203125 129.484375 C138.25035507 147.08616128 114.89372579 156.57790837 90.94458008 157.33666992 C66.37376166 157.70318949 44.01246922 149.33401358 25.97753906 132.49511719 C8.72820639 115.7111624 -1.59600869 93.43724817 -2.16796875 69.1953125 C-2.17975997 67.50523693 -2.18620588 65.81511621 -2.1875 64.125 C-2.19974609 63.29097656 -2.21199219 62.45695313 -2.22460938 61.59765625 C-2.23444026 57.35726998 -1.96608024 53.48004867 -0.99780273 49.34570312 C0.11424025 43.98132262 0.25722289 38.86122894 0.1953125 33.3984375 C0.1924826 32.435961 0.18965271 31.4734845 0.18673706 30.48184204 C0.17565578 27.44609465 0.1505746 24.4106563 0.125 21.375 C0.11495459 19.30078555 0.10583149 17.22656641 0.09765625 15.15234375 C0.07575609 10.10144574 0.04131123 5.05077503 0 0 Z " fill="#FEFEFE" transform="translate(358,535)"/>
<path d="M0 0 C0.33 0 0.66 0 1 0 C1.33 47.19 1.66 94.38 2 143 C-19.77949951 145.61353994 -40.19731772 147 -62 147 C-62 103.44 -62 59.88 -62 15 C-57.32892795 16.86842882 -54.69299916 18.81376101 -51.1875 22.1875 C-50.12035506 23.1894025 -49.05264681 24.19070536 -47.984375 25.19140625 C-47.21383789 25.9186792 -47.21383789 25.9186792 -46.42773438 26.66064453 C-44.02537285 28.91429626 -41.56263251 31.09084312 -39.05859375 33.23046875 C-37.46399958 34.60115406 -35.89931015 36.00666922 -34.34765625 37.42578125 C-28.714067 42.67487255 -28.714067 42.67487255 -21.625 45.0625 C-17.78943776 44.28477635 -17.78943776 44.28477635 -15.375 41.0625 C-12.48788166 35.57697516 -10.60259397 29.62586969 -8.625 23.765625 C-6.88823189 18.62012545 -5.01367383 13.52885383 -3.125 8.4375 C-2.65924561 7.17812622 -2.65924561 7.17812622 -2.18408203 5.89331055 C-1.45715354 3.92846681 -0.72874791 1.96416966 0 0 Z " fill="#FDFEFE" transform="translate(515,752)"/>
<path d="M0 0 C7.18774179 4.48176841 10.97310962 10.4637269 12.94921875 18.578125 C13.07296875 19.19558594 13.19671875 19.81304688 13.32421875 20.44921875 C15.06058594 20.50529297 15.06058594 20.50529297 16.83203125 20.5625 C18.37112436 20.628193 19.91018545 20.69463917 21.44921875 20.76171875 C22.20976563 20.78427734 22.9703125 20.80683594 23.75390625 20.83007812 C29.97383434 21.12498851 34.20418796 22.24070587 38.6640625 26.88671875 C41.08081537 32.07278609 40.94475393 36.79590926 40.88671875 42.44921875 C40.92249023 44.05023437 40.92249023 44.05023437 40.95898438 45.68359375 C40.94271652 54.40316249 40.94271652 54.40316249 38.0390625 58.07421875 C33.11160321 62.38485939 29.42735793 62.74410631 22.97900391 62.72387695 C22.13949692 62.72898788 21.29998993 62.73409882 20.43504333 62.73936462 C17.66105002 62.75325952 14.88730522 62.75230378 12.11328125 62.75 C10.18280953 62.7538873 8.25233866 62.75822204 6.3218689 62.76298523 C2.27509794 62.77044745 -1.77158577 62.77015637 -5.81835938 62.76489258 C-10.99906773 62.75910135 -16.17941818 62.77602059 -21.36006737 62.79923725 C-25.34754518 62.81398491 -29.33493703 62.81484482 -33.32243729 62.81172752 C-35.23217095 62.81224033 -37.14190948 62.8174704 -39.05161667 62.82753944 C-41.72523847 62.83990495 -44.39816628 62.83311129 -47.07177734 62.8215332 C-47.85743576 62.82917694 -48.64309418 62.83682068 -49.45256042 62.84469604 C-54.25352529 62.79884781 -57.50090478 62.06450987 -61.67578125 59.44921875 C-67.18441018 53.49394423 -66.88588038 48.35255039 -66.92578125 40.63671875 C-66.94640625 39.65123047 -66.96703125 38.66574219 -66.98828125 37.65039062 C-67.017631 32.187669 -66.8841407 28.10433842 -63.67578125 23.44921875 C-60.37289789 21.24729651 -59.40115398 21.20961907 -55.5703125 21.25390625 C-54.58740234 21.26035156 -53.60449219 21.26679687 -52.59179688 21.2734375 C-51.56763672 21.29019531 -50.54347656 21.30695312 -49.48828125 21.32421875 C-48.45251953 21.33324219 -47.41675781 21.34226562 -46.34960938 21.3515625 C-43.7914344 21.37514015 -41.23372377 21.40804845 -38.67578125 21.44921875 C-38.63549805 20.84956299 -38.59521484 20.24990723 -38.55371094 19.63208008 C-37.8688903 11.61140238 -35.02594092 7.62757536 -29.23828125 2.13671875 C-20.13442113 -3.85850621 -10.04089911 -4.60814211 0 0 Z " fill="#FDFDFE" transform="translate(660.67578125,610.55078125)"/>
<path d="M0 0 C34 0 34 0 41.8125 6.25 C49.83620368 16.33694177 51.16498593 25.28430249 50 38 C49.15438051 41.41924402 47.9396958 44.0744522 46 47 C45.29875 48.0725 44.5975 49.145 43.875 50.25 C31.46573263 62.119734 16.93428669 59 0 59 C0 39.53 0 20.06 0 0 Z " fill="#FCFDFE" transform="translate(490,942)"/>
<path d="M0 0 C1.93166016 0.01740234 1.93166016 0.01740234 3.90234375 0.03515625 C5.19269531 0.04417969 6.48304688 0.05320312 7.8125 0.0625 C8.81152344 0.07410156 9.81054688 0.08570313 10.83984375 0.09765625 C12.98359429 4.45395499 15.11961366 8.8139253 17.24853516 13.17749023 C17.97395589 14.66160045 18.70148405 16.14468249 19.43115234 17.62670898 C20.47918646 19.75628579 21.51960312 21.88943686 22.55859375 24.0234375 C23.05075378 25.01734245 23.05075378 25.01734245 23.55285645 26.03132629 C24.94965292 28.91698509 25.83984375 30.84766085 25.83984375 34.09765625 C26.49984375 34.09765625 27.15984375 34.09765625 27.83984375 34.09765625 C28.20722656 32.88207031 28.57460938 31.66648437 28.953125 30.4140625 C31.08223126 24.02674371 34.0699902 18.07178017 37.02734375 12.03515625 C37.86555664 10.30749023 37.86555664 10.30749023 38.72070312 8.54492188 C40.08886442 5.72674348 41.46200118 2.91111055 42.83984375 0.09765625 C45.15228167 0.07080213 47.46480645 0.05132784 49.77734375 0.03515625 C51.06511719 0.02355469 52.35289062 0.01195312 53.6796875 0 C56.83984375 0.09765625 56.83984375 0.09765625 57.83984375 1.09765625 C57.93878153 2.87211634 57.96783467 4.65051876 57.96923828 6.42773438 C57.97239044 7.56561401 57.9755426 8.70349365 57.97879028 9.87585449 C57.97676605 11.11436157 57.97474182 12.35286865 57.97265625 13.62890625 C57.97361298 14.89029419 57.9745697 16.15168213 57.97555542 17.45129395 C57.9762375 20.12462763 57.97487904 22.79787062 57.97021484 25.47119141 C57.96451756 28.90472316 57.96779676 32.33817675 57.97378731 35.77170563 C57.97826137 39.03660868 57.97513258 42.30150218 57.97265625 45.56640625 C57.97468048 46.80491333 57.97670471 48.04342041 57.97879028 49.31945801 C57.97406204 51.02627747 57.97406204 51.02627747 57.96923828 52.76757812 C57.96844269 53.77494019 57.96764709 54.78230225 57.96682739 55.82019043 C57.83984375 58.09765625 57.83984375 58.09765625 56.83984375 59.09765625 C55.00868492 59.19616796 53.17364442 59.22738254 51.33984375 59.22265625 C50.33953125 59.22523437 49.33921875 59.2278125 48.30859375 59.23046875 C45.83984375 59.09765625 45.83984375 59.09765625 44.83984375 58.09765625 C44.68012398 55.72426986 44.58060045 53.37647353 44.5234375 51 C44.5026564 50.29114151 44.48187531 49.58228302 44.46046448 48.85194397 C44.39489777 46.5797832 44.33605145 44.30750361 44.27734375 42.03515625 C44.23416526 40.49803442 44.1905512 38.96092475 44.14648438 37.42382812 C44.03838641 33.64855769 43.93936738 29.87320159 43.83984375 26.09765625 C39.87984375 34.34765625 35.91984375 42.59765625 31.83984375 51.09765625 C28.86984375 51.09765625 25.89984375 51.09765625 22.83984375 51.09765625 C21.23228637 48.07858507 19.62872026 45.05750384 18.02734375 42.03515625 C17.34961914 40.76381836 17.34961914 40.76381836 16.65820312 39.46679688 C16.21669922 38.63212891 15.77519531 37.79746094 15.3203125 36.9375 C14.91707764 36.17816162 14.51384277 35.41882324 14.09838867 34.63647461 C12.55184227 31.51668101 11.21150434 28.29819762 9.83984375 25.09765625 C9.50984375 36.31765625 9.17984375 47.53765625 8.83984375 59.09765625 C4.87984375 59.09765625 0.91984375 59.09765625 -3.16015625 59.09765625 C-4.87838715 57.37942535 -4.28769946 55.11167876 -4.28955078 52.76757812 C-4.29270294 51.62969849 -4.2958551 50.49181885 -4.29910278 49.31945801 C-4.29707855 48.08095093 -4.29505432 46.84244385 -4.29296875 45.56640625 C-4.29392548 44.30501831 -4.2948822 43.04363037 -4.29586792 41.74401855 C-4.29655 39.07068487 -4.29519154 36.39744188 -4.29052734 33.72412109 C-4.28483006 30.29058934 -4.28810926 26.85713575 -4.29409981 23.42360687 C-4.29857387 20.15870382 -4.29544508 16.89381032 -4.29296875 13.62890625 C-4.29499298 12.39039917 -4.29701721 11.15189209 -4.29910278 9.87585449 C-4.29595062 8.73797485 -4.29279846 7.60009521 -4.28955078 6.42773438 C-4.28875519 5.42037231 -4.28795959 4.41301025 -4.28713989 3.37512207 C-4.08814669 -0.1938432 -3.66541452 0.11326992 0 0 Z " fill="#FAFBFE" transform="translate(313.16015625,1020.90234375)"/>
<path d="M0 0 C4.49987562 -0.08767743 8.999529 -0.14062009 13.5 -0.1875 C15.40265625 -0.22520508 15.40265625 -0.22520508 17.34375 -0.26367188 C31.95429673 -0.37781677 31.95429673 -0.37781677 38.05859375 4.71875 C38.74115234 5.60046875 38.74115234 5.60046875 39.4375 6.5 C39.91058594 7.0878125 40.38367188 7.675625 40.87109375 8.28125 C44.11010417 13.21261534 43.41163452 19.34938066 43 25 C41.17150905 30.38923649 38.07783589 33.46108206 33 36 C34.88148903 41.81551155 38.7055516 46.4190188 42.27539062 51.29296875 C42.76587891 51.98261719 43.25636719 52.67226562 43.76171875 53.3828125 C44.21506592 54.00559082 44.66841309 54.62836914 45.13549805 55.27001953 C46 57 46 57 45 60 C40.37599895 60.97843282 36.58673019 61.26286624 32 60 C28.009636 56.41471078 25.48047133 51.49281302 22.97558594 46.81103516 C22.11832744 45.21965789 21.17835553 43.67342424 20.2265625 42.13671875 C19 40 19 40 19 38 C16.69 38 14.38 38 12 38 C12.00523682 38.63091553 12.01047363 39.26183105 12.01586914 39.91186523 C12.03657826 42.75373347 12.04964066 45.59558588 12.0625 48.4375 C12.07087891 49.43072266 12.07925781 50.42394531 12.08789062 51.44726562 C12.09111328 52.39150391 12.09433594 53.33574219 12.09765625 54.30859375 C12.10289307 55.18314209 12.10812988 56.05769043 12.11352539 56.95874023 C12 59 12 59 11 60 C9.33570949 60.09823937 7.66718069 60.12973631 6 60.125 C4.63875 60.12886719 4.63875 60.12886719 3.25 60.1328125 C1 60 1 60 0 59 C-0.09381302 57.15881971 -0.11743954 55.31402359 -0.11352539 53.47045898 C-0.11344986 52.28931015 -0.11337433 51.10816132 -0.11329651 49.89122009 C-0.10813522 48.6058284 -0.10297394 47.32043671 -0.09765625 45.99609375 C-0.0962413 44.68794205 -0.09482635 43.37979034 -0.09336853 42.03199768 C-0.0895441 38.54837141 -0.07971446 35.06478661 -0.06866455 31.58117676 C-0.05844882 28.02873292 -0.05387056 24.47628241 -0.04882812 20.92382812 C-0.03809212 13.94920168 -0.0210166 6.97460283 0 0 Z " fill="#FBFCFE" transform="translate(668,1020)"/>
<path d="M0 0 C1.39605469 -0.14308594 1.39605469 -0.14308594 2.8203125 -0.2890625 C7.92041239 1.23705435 9.97292128 5.35055272 12.875 9.625 C13.61492188 10.70458984 14.35484375 11.78417969 15.1171875 12.89648438 C17.5478024 16.47238228 19.9316715 20.07834901 22.3125 23.6875 C23.14745939 24.94748243 23.98274373 26.20724958 24.81835938 27.46679688 C26.84098405 30.51706376 28.85922299 33.57020218 30.875 36.625 C30.91258423 35.04247437 30.91258423 35.04247437 30.95092773 33.42797852 C31.04484109 29.52729372 31.14510034 25.62679375 31.24731445 21.72631836 C31.29072439 20.03560701 31.33239489 18.34485009 31.37231445 16.65405273 C31.42987094 14.22886394 31.49360649 11.80390585 31.55859375 9.37890625 C31.57530624 8.61848526 31.59201874 7.85806427 31.60923767 7.07460022 C31.76112829 1.73887171 31.76112829 1.73887171 32.875 0.625 C34.70615883 0.52648829 36.54119933 0.49527371 38.375 0.5 C39.3753125 0.49742187 40.375625 0.49484375 41.40625 0.4921875 C43.875 0.625 43.875 0.625 44.875 1.625 C44.97399561 3.43009373 45.00299151 5.23906928 45.00439453 7.046875 C45.00754669 8.20477539 45.01069885 9.36267578 45.01394653 10.55566406 C45.0119223 11.81604492 45.00989807 13.07642578 45.0078125 14.375 C45.00876923 15.65858398 45.00972595 16.94216797 45.01071167 18.26464844 C45.01218831 20.98503824 45.01003519 23.70539525 45.00537109 26.42578125 C44.99967381 29.91984669 45.00295299 33.41383533 45.00894356 36.90789795 C45.01341754 40.23027153 45.01028885 43.55262423 45.0078125 46.875 C45.00983673 48.13538086 45.01186096 49.39576172 45.01394653 50.69433594 C45.00921829 52.43118652 45.00921829 52.43118652 45.00439453 54.203125 C45.00359894 55.22825195 45.00280334 56.25337891 45.00198364 57.30957031 C44.875 59.625 44.875 59.625 43.875 60.625 C39.50549578 62.02834442 36.23658621 62.09619944 31.875 60.625 C26.44977529 55.70801014 22.88832598 48.82097316 19.125 42.625 C18.02733139 40.88815798 16.92580494 39.1537477 15.8203125 37.421875 C13.12638642 33.18310849 10.48744158 28.91442373 7.875 24.625 C7.84994385 25.68001709 7.8248877 26.73503418 7.79907227 27.82202148 C7.70515891 31.72270628 7.60489966 35.62320625 7.50268555 39.52368164 C7.45927561 41.21439299 7.41760511 42.90514991 7.37768555 44.59594727 C7.32012906 47.02113606 7.25639351 49.44609415 7.19140625 51.87109375 C7.16633751 53.01172523 7.16633751 53.01172523 7.14076233 54.17539978 C6.98887171 59.51112829 6.98887171 59.51112829 5.875 60.625 C4.04384117 60.72351171 2.20880067 60.75472629 0.375 60.75 C-0.6253125 60.75257813 -1.625625 60.75515625 -2.65625 60.7578125 C-5.125 60.625 -5.125 60.625 -6.125 59.625 C-6.22399561 57.81990627 -6.25299151 56.01093072 -6.25439453 54.203125 C-6.25754669 53.04522461 -6.26069885 51.88732422 -6.26394653 50.69433594 C-6.2619223 49.43395508 -6.25989807 48.17357422 -6.2578125 46.875 C-6.25924759 44.94962402 -6.25924759 44.94962402 -6.26071167 42.98535156 C-6.26218831 40.26496176 -6.26003519 37.54460475 -6.25537109 34.82421875 C-6.24967381 31.33015331 -6.25295299 27.83616467 -6.25894356 24.34210205 C-6.26341754 21.01972847 -6.26028885 17.69737577 -6.2578125 14.375 C-6.25983673 13.11461914 -6.26186096 11.85423828 -6.26394653 10.55566406 C-6.26079437 9.39776367 -6.25764221 8.23986328 -6.25439453 7.046875 C-6.25320114 5.50918457 -6.25320114 5.50918457 -6.25198364 3.94042969 C-6.02241665 -0.24551292 -3.75524009 0.27627107 0 0 Z " fill="#FAFBFE" transform="translate(600.125,940.375)"/>
<path d="M0 0 C1.39605469 -0.14308594 1.39605469 -0.14308594 2.8203125 -0.2890625 C7.92041239 1.23705435 9.97292128 5.35055272 12.875 9.625 C13.61492187 10.70458984 14.35484375 11.78417969 15.1171875 12.89648438 C17.54721729 16.47278567 19.93124852 20.07850127 22.3125 23.6875 C25.138125 27.956875 27.96375 32.22625 30.875 36.625 C31.205 24.745 31.535 12.865 31.875 0.625 C35.835 0.625 39.795 0.625 43.875 0.625 C43.875 20.425 43.875 40.225 43.875 60.625 C31.875 60.625 31.875 60.625 28.30957031 57.3203125 C27.31434833 55.82465824 26.36373729 54.29862317 25.453125 52.75 C24.93739929 51.95094238 24.42167358 51.15188477 23.89031982 50.32861328 C22.26089328 47.78413657 20.69349454 45.20738328 19.125 42.625 C18.02733139 40.88815798 16.92580494 39.1537477 15.8203125 37.421875 C13.12638642 33.18310849 10.48744158 28.91442373 7.875 24.625 C7.84994385 25.68001709 7.8248877 26.73503418 7.79907227 27.82202148 C7.70515891 31.72270628 7.60489966 35.62320625 7.50268555 39.52368164 C7.45927561 41.21439299 7.41760511 42.90514991 7.37768555 44.59594727 C7.32012906 47.02113606 7.25639351 49.44609415 7.19140625 51.87109375 C7.16633751 53.01172523 7.16633751 53.01172523 7.14076233 54.17539978 C6.98887171 59.51112829 6.98887171 59.51112829 5.875 60.625 C4.04384117 60.72351171 2.20880067 60.75472629 0.375 60.75 C-0.6253125 60.75257812 -1.625625 60.75515625 -2.65625 60.7578125 C-5.125 60.625 -5.125 60.625 -6.125 59.625 C-6.22399561 57.81990627 -6.25299151 56.01093072 -6.25439453 54.203125 C-6.25754669 53.04522461 -6.26069885 51.88732422 -6.26394653 50.69433594 C-6.2619223 49.43395508 -6.25989807 48.17357422 -6.2578125 46.875 C-6.25924759 44.94962402 -6.25924759 44.94962402 -6.26071167 42.98535156 C-6.26218831 40.26496176 -6.26003519 37.54460475 -6.25537109 34.82421875 C-6.24967381 31.33015331 -6.25295299 27.83616467 -6.25894356 24.34210205 C-6.26341754 21.01972847 -6.26028885 17.69737577 -6.2578125 14.375 C-6.25983673 13.11461914 -6.26186096 11.85423828 -6.26394653 10.55566406 C-6.26079437 9.39776367 -6.25764221 8.23986328 -6.25439453 7.046875 C-6.25320114 5.50918457 -6.25320114 5.50918457 -6.25198364 3.94042969 C-6.02241665 -0.24551292 -3.75524009 0.27627107 0 0 Z " fill="#FCFDFE" transform="translate(446.125,1019.375)"/>
<path d="M0 0 C5.53953121 3.69620444 9.22023727 7.97718075 12 14 C12 14.99 12 15.98 12 17 C9.75165504 17.13526139 7.50097486 17.23210804 5.25 17.3125 C3.99703125 17.37050781 2.7440625 17.42851563 1.453125 17.48828125 C-2 17 -2 17 -4.3125 14.5625 C-5.1478125 13.2940625 -5.1478125 13.2940625 -6 12 C-10.03836177 9.64428897 -14.42073575 9.26372614 -19 10 C-24.10209922 12.69544864 -27.17381037 15.5214311 -29 21 C-29.61015184 29.43209835 -30.06200866 36.88582567 -25 44 C-21.80197149 47.10111855 -18.85565891 47.2237505 -14.5625 47.375 C-9.98615076 47.21507382 -6.70965553 46.8953409 -3 44 C-1.35910619 41.39205905 -0.21624022 38.85348667 1 36 C-3.95 36 -8.9 36 -14 36 C-14 32.7 -14 29.4 -14 26 C-5.09 26 3.82 26 13 26 C13.63596307 43.80696601 13.63596307 43.80696601 7.08203125 51.1484375 C0.77473289 57.3329389 -5.66894821 59.92170284 -14.4375 60.4375 C-22.85479327 60.08058297 -30.27974762 56.70327275 -36.34375 50.9375 C-44.17568518 41.77561357 -43.88292784 30.41147238 -43 19 C-41.54194252 11.73606304 -37.87462698 6.46234292 -32 2 C-22.01302904 -4.12285323 -10.76848661 -4.97954528 0 0 Z " fill="#FBFCFE" transform="translate(599,1021)"/>
<path d="M0 0 C1.73056641 -0.05994141 1.73056641 -0.05994141 3.49609375 -0.12109375 C6.5625 0.4375 6.5625 0.4375 8.2890625 2.44921875 C9.8638037 6.14454704 11.22722419 9.88053313 12.5 13.6875 C14.82251193 20.49379593 17.21477851 27.27045466 19.6875 34.0234375 C19.95953751 34.7669043 20.23157501 35.51037109 20.51185608 36.27636719 C21.61639915 39.29263116 22.72206741 42.3084621 23.83297729 45.3223877 C24.6192268 47.45612856 25.40167476 49.59123167 26.18359375 51.7265625 C26.42388306 52.37466888 26.66417236 53.02277527 26.91174316 53.69052124 C28.5625 58.21072316 28.5625 58.21072316 28.5625 60.4375 C24.2725 60.4375 19.9825 60.4375 15.5625 60.4375 C11.5625 51.8125 11.5625 51.8125 11.5625 48.4375 C3.9725 48.4375 -3.6175 48.4375 -11.4375 48.4375 C-12.4275 52.0675 -13.4175 55.6975 -14.4375 59.4375 C-15.4375 60.4375 -15.4375 60.4375 -18.16015625 60.53515625 C-19.26230469 60.52355469 -20.36445313 60.51195312 -21.5 60.5 C-23.15708984 60.48646484 -23.15708984 60.48646484 -24.84765625 60.47265625 C-25.70230469 60.46105469 -26.55695313 60.44945312 -27.4375 60.4375 C-28.61655175 56.90034475 -28.21699206 56.13306235 -26.953125 52.73046875 C-26.60000244 51.7650415 -26.24687988 50.79961426 -25.88305664 49.80493164 C-25.48852295 48.7555542 -25.09398926 47.70617676 -24.6875 46.625 C-24.28716553 45.54017334 -23.88683105 44.45534668 -23.47436523 43.33764648 C-22.60252862 40.97552511 -21.72728782 38.61465815 -20.84912109 36.25488281 C-19.35879537 32.23922862 -17.90720078 28.20997949 -16.45703125 24.1796875 C-15.71504683 22.12562866 -14.97229586 20.07184921 -14.22912598 18.01821899 C-13.74362403 16.67435075 -13.25965162 15.32992894 -12.77722168 13.98495483 C-12.09774847 12.09349662 -11.41037248 10.20488299 -10.72265625 8.31640625 C-10.32957275 7.2291626 -9.93648926 6.14191895 -9.53149414 5.02172852 C-7.39884832 -0.01599879 -5.15373525 0.09767391 0 0 Z " fill="#F9FBFE" transform="translate(405.4375,1019.5625)"/>
<path d="M0 0 C3.38105799 1.37708168 5.44394628 3.5794911 6.98300171 6.80766296 C7.41302738 14.45107991 4.69347446 22.10056231 2.48300171 29.30766296 C1.95984375 31.0439093 1.95984375 31.0439093 1.42611694 32.81523132 C-8.06684212 63.90735063 -8.06684212 63.90735063 -12.01699829 71.80766296 C-15.88142313 71.21862823 -18.0049994 69.42532218 -20.95449829 66.93266296 C-21.91484985 66.1269989 -22.87520142 65.32133484 -23.86465454 64.49125671 C-24.91575788 63.59710395 -25.96652597 62.70255698 -27.01699829 61.80766296 C-28.16116053 60.83977866 -29.3056994 59.87233943 -30.45059204 58.90531921 C-32.14021933 57.47769936 -33.82879727 56.04898712 -35.5128479 54.61479187 C-38.63762786 51.9554255 -41.79964633 49.35423859 -45.01699829 46.80766296 C-44.46528463 42.96290836 -42.80237498 41.29892749 -40.01699829 38.68266296 C-37.12414241 36.03705572 -37.12414241 36.03705572 -35.01699829 32.80766296 C-34.35699829 32.80766296 -33.69699829 32.80766296 -33.01699829 32.80766296 C-32.74527802 32.21226212 -32.47355774 31.61686127 -32.19360352 31.00341797 C-31.0391894 28.84907553 -29.89263769 27.41320549 -28.1913147 25.67558289 C-27.62377472 25.09205551 -27.05623474 24.50852814 -26.47149658 23.90731812 C-25.86002777 23.2904866 -25.24855896 22.67365509 -24.61856079 22.03813171 C-23.98719208 21.39773453 -23.35582336 20.75733734 -22.70532227 20.09753418 C-21.37152322 18.74925365 -20.03491711 17.40374503 -18.69570923 16.06083679 C-16.6440545 13.99723115 -14.61178906 11.9157094 -12.57949829 9.83305359 C-11.28117109 8.52526832 -9.98172924 7.2185885 -8.68106079 5.91313171 C-7.76993027 4.97270271 -7.76993027 4.97270271 -6.84039307 4.01327515 C-2.53941178 -0.24215337 -2.53941178 -0.24215337 0 0 Z " fill="#FDFDFE" transform="translate(503.0169982910156,705.1923370361328)"/>
<path d="M0 0 C4.01783745 0.51460839 5.91769011 1.43379727 8.70703125 4.3515625 C9.7115332 5.38216797 9.7115332 5.38216797 10.73632812 6.43359375 C11.42146484 7.15675781 12.10660156 7.87992188 12.8125 8.625 C18.64626952 14.69402622 18.64626952 14.69402622 24.85546875 20.37109375 C30.00319166 24.78974003 34.72817599 29.62059335 39.5 34.4375 C40.4178125 35.35982422 41.335625 36.28214844 42.28125 37.23242188 C44.52315055 39.48599899 46.762666 41.74189075 49 44 C47.68904505 46.95311939 46.3658972 48.82764609 43.91015625 50.91796875 C42.98819458 51.71013794 42.98819458 51.71013794 42.04760742 52.51831055 C41.39252197 53.06914307 40.73743652 53.61997559 40.0625 54.1875 C39.39387939 54.75831299 38.72525879 55.32912598 38.03637695 55.91723633 C33.10567387 60.11183779 28.11519153 64.2315572 23.07421875 68.29296875 C20.95259606 69.98296875 20.95259606 69.98296875 19 72 C17.68 72 16.36 72 15 72 C10.92034675 60.94242993 7.2719084 49.75881269 3.69628906 38.52954102 C2.74342757 35.54189247 1.78197813 32.55709023 0.8203125 29.57226562 C0.20780796 27.65381349 -0.40418958 25.7351994 -1.015625 23.81640625 C-1.30101135 22.93400772 -1.58639771 22.05160919 -1.88043213 21.14247131 C-5.79391105 8.76528457 -5.79391105 8.76528457 -4.00390625 4.78515625 C-2.66927083 3.19010417 -1.33463542 1.59505208 0 0 Z " fill="#FCFDFE" transform="translate(388,705)"/>
<path d="M0 0 C4.62 0 9.24 0 14 0 C17.31154167 6.3033967 19.90314368 12.71737249 22.36328125 19.39453125 C22.75952194 20.46370285 23.15576263 21.53287445 23.56401062 22.63444519 C24.39415975 24.87998704 25.221823 27.12644931 26.04711914 29.3737793 C27.31624385 32.82267406 28.60016671 36.26582805 29.88476562 39.70898438 C30.69101222 41.89549872 31.49638208 44.08233658 32.30078125 46.26953125 C32.68712234 47.30076614 33.07346344 48.33200104 33.47151184 49.39448547 C33.81905014 50.34945419 34.16658844 51.30442291 34.5246582 52.28833008 C34.98954399 53.54786247 34.98954399 53.54786247 35.46382141 54.83283997 C36 57 36 57 35 60 C31.04 60 27.08 60 23 60 C19 50.375 19 50.375 19 47 C11.41 47 3.82 47 -4 47 C-4.474375 48.959375 -4.94875 50.91875 -5.4375 52.9375 C-6.875 58.875 -6.875 58.875 -8 60 C-10.01964199 60.07244053 -12.04167124 60.08377188 -14.0625 60.0625 C-15.71958984 60.04896484 -15.71958984 60.04896484 -17.41015625 60.03515625 C-18.26480469 60.02355469 -19.11945313 60.01195312 -20 60 C-21.1568303 56.52950911 -20.83401208 55.8298102 -19.61645508 52.50366211 C-19.28893753 51.59519028 -18.96141998 50.68671844 -18.62397766 49.75071716 C-18.25951035 48.76950394 -17.89504303 47.78829071 -17.51953125 46.77734375 C-17.15027023 45.76209122 -16.78100922 44.74683868 -16.40055847 43.70082092 C-15.21311327 40.44317387 -14.01279494 37.19043146 -12.8125 33.9375 C-12.02197868 31.77177906 -11.23225565 29.60576655 -10.44335938 27.43945312 C-7.08305259 18.24026518 -3.67352189 9.07948722 0 0 Z " fill="#FAFBFE" transform="translate(518,1020)"/>
<path d="M0 0 C1.50046875 0.00386719 1.50046875 0.00386719 3.03125 0.0078125 C4.0315625 0.00523437 5.031875 0.00265625 6.0625 0 C8.53125 0.1328125 8.53125 0.1328125 9.53125 1.1328125 C9.65451856 3.94528204 9.71740784 6.73695719 9.7421875 9.55078125 C9.77027133 11.29753517 9.79893588 13.04427983 9.828125 14.79101562 C9.86929348 17.55150953 9.90616877 20.31183344 9.93261719 23.07250977 C9.96032583 25.73230047 10.00621506 28.39129851 10.0546875 31.05078125 C10.05794037 31.86975388 10.06119324 32.6887265 10.06454468 33.53251648 C10.18822912 39.33451994 11.3281949 43.50609296 15.15625 48.0703125 C18.88691932 49.73929614 22.64812752 49.26270818 26.53125 48.1328125 C29.79722322 45.80107748 30.50092467 42.91432282 31.53125 39.1328125 C31.84694441 36.0950223 31.902423 33.06810834 31.9453125 30.015625 C31.96467865 29.15846893 31.9840448 28.30131287 32.0039978 27.41818237 C32.06346256 24.69815822 32.11004569 21.97809098 32.15625 19.2578125 C32.1944603 17.40623222 32.23351378 15.55466913 32.2734375 13.703125 C32.36913664 9.17982825 32.45328906 4.65644834 32.53125 0.1328125 C34.34367052 0.10593971 36.15620233 0.08647535 37.96875 0.0703125 C38.97808594 0.05871094 39.98742187 0.04710937 41.02734375 0.03515625 C43.53125 0.1328125 43.53125 0.1328125 44.53125 1.1328125 C44.65744109 4.05738668 44.71997374 6.95696761 44.734375 9.8828125 C44.74007507 10.77009033 44.74577515 11.65736816 44.75164795 12.5715332 C44.76111914 14.45799562 44.76764029 16.34447475 44.77148438 18.23095703 C44.78111628 21.09307738 44.81208799 23.95445693 44.84375 26.81640625 C44.85028736 28.65103741 44.85553494 30.48567371 44.859375 32.3203125 C44.8717218 33.16754883 44.8840686 34.01478516 44.89678955 34.88769531 C44.87125053 41.83979457 43.4152572 47.81695983 39.96875 53.8828125 C34.36831611 59.05244379 28.60023937 61.44509973 20.96875 61.6953125 C13.32510863 61.35359677 7.45723304 59.54669902 2.15625 53.8828125 C-3.17509036 47.58497184 -3.91103539 40.29936553 -3.796875 32.41796875 C-3.79500183 31.52162216 -3.79312866 30.62527557 -3.79119873 29.70176697 C-3.78451906 27.82351921 -3.77068692 25.94528438 -3.75 24.06713867 C-3.71857679 21.17939463 -3.7089972 18.29219571 -3.703125 15.40429688 C-3.69396474 13.57551411 -3.6835921 11.74673692 -3.671875 9.91796875 C-3.66762512 9.05140152 -3.66337524 8.18483429 -3.65899658 7.29200745 C-3.57319104 0.19222863 -3.57319104 0.19222863 0 0 Z " fill="#FBFCFE" transform="translate(433.46875,940.8671875)"/>
<path d="M0 0 C2.59418311 2.33238481 4.43278435 4.86556871 6 8 C6.04022391 10.3329866 6.04320247 12.66706666 6 15 C4.06440687 15.13504138 2.126128 15.23201129 0.1875 15.3125 C-0.89144531 15.37050781 -1.97039062 15.42851563 -3.08203125 15.48828125 C-4.04496094 15.32714844 -5.00789063 15.16601562 -6 15 C-7.69921875 12.60546875 -7.69921875 12.60546875 -9 10 C-12.48868651 7.67420899 -13.89718519 7.58134543 -18 8 C-20.34261608 9.37926773 -20.34261608 9.37926773 -22 11 C-22.21790719 13.883975 -22.21790719 13.883975 -21 17 C-18.23167942 18.86960039 -15.12953633 19.87211867 -12 21 C1.24809941 25.96380195 1.24809941 25.96380195 6 32 C7.91196568 37.74784684 8.01605502 43.96788996 5.3125 49.375 C0.89659257 54.38765168 -3.09225961 57.74483095 -9.828125 58.3359375 C-18.63179033 58.51678029 -25.5937495 58.62610802 -32.54296875 52.6796875 C-36.37369351 48.75238984 -36.7299481 45.22100345 -37 40 C-34.89758397 39.86503749 -32.7927039 39.76802693 -30.6875 39.6875 C-29.51574219 39.62949219 -28.34398437 39.57148437 -27.13671875 39.51171875 C-26.10160156 39.67285156 -25.06648438 39.83398438 -24 40 C-22.20703125 42.45703125 -22.20703125 42.45703125 -21 45 C-18.6603331 46.16983345 -17.16608473 46.1661241 -14.5625 46.1875 C-13.78003906 46.20167969 -12.99757813 46.21585938 -12.19140625 46.23046875 C-9.70794013 46.14086064 -9.70794013 46.14086064 -7 44 C-6.7497843 40.91634129 -6.7497843 40.91634129 -7 38 C-11.61984819 35.60123267 -16.20909699 33.51141702 -21.0625 31.625 C-27.1326973 29.12324991 -31.98302042 26.33240104 -35.4375 20.625 C-36.50198574 15.65739988 -36.558218 11.64181765 -34.9375 6.875 C-26.66938594 -5.39381441 -12.53609965 -7.29049767 0 0 Z " fill="#FBFCFE" transform="translate(365,944)"/>
<path d="M0 0 C4.96622349 -0.02465098 9.93241166 -0.04283649 14.89868164 -0.05493164 C16.58944316 -0.0599719 18.28020029 -0.06680405 19.97094727 -0.07543945 C22.39600707 -0.08751857 24.82100944 -0.09323123 27.24609375 -0.09765625 C28.38672523 -0.10539818 28.38672523 -0.10539818 29.55039978 -0.11329651 C31.3673257 -0.11349238 33.18413127 -0.06197277 35 0 C36 1 36 1 36.1328125 3.03125 C36.13023437 3.8459375 36.12765625 4.660625 36.125 5.5 C36.12886719 6.72203125 36.12886719 6.72203125 36.1328125 7.96875 C36 10 36 10 35 11 C33.36527118 11.08700342 31.72685945 11.10701063 30.08984375 11.09765625 C29.10048828 11.09443359 28.11113281 11.09121094 27.09179688 11.08789062 C26.05087891 11.07951172 25.00996094 11.07113281 23.9375 11.0625 C22.89271484 11.05798828 21.84792969 11.05347656 20.77148438 11.04882812 C18.18096546 11.03699927 15.59047578 11.01906319 13 11 C13 15.29 13 19.58 13 24 C14.35996094 23.98839844 15.71992187 23.97679687 17.12109375 23.96484375 C18.8932278 23.95546738 20.66536333 23.94636702 22.4375 23.9375 C23.78424805 23.92493164 23.78424805 23.92493164 25.15820312 23.91210938 C26.01220703 23.90888672 26.86621094 23.90566406 27.74609375 23.90234375 C28.93223267 23.89448853 28.93223267 23.89448853 30.14233398 23.88647461 C32 24 32 24 33 25 C33.0979057 26.49738124 33.12974864 27.99942892 33.125 29.5 C33.12886719 30.72203125 33.12886719 30.72203125 33.1328125 31.96875 C33 34 33 34 32 35 C30.58429877 35.08651611 29.164405 35.10704904 27.74609375 35.09765625 C26.89208984 35.09443359 26.03808594 35.09121094 25.15820312 35.08789062 C24.26037109 35.07951172 23.36253906 35.07113281 22.4375 35.0625 C21.53580078 35.05798828 20.63410156 35.05347656 19.70507812 35.04882812 C17.47002411 35.03700244 15.23500398 35.01906638 13 35 C13 39.62 13 44.24 13 49 C14.64871094 48.98839844 16.29742188 48.97679687 17.99609375 48.96484375 C20.14322804 48.95546762 22.29036355 48.94636723 24.4375 48.9375 C25.52611328 48.92912109 26.61472656 48.92074219 27.73632812 48.91210938 C28.77080078 48.90888672 29.80527344 48.90566406 30.87109375 48.90234375 C31.82943115 48.89710693 32.78776855 48.89187012 33.77514648 48.88647461 C36 49 36 49 37 50 C37.0979057 51.49738124 37.12974864 52.99942892 37.125 54.5 C37.12886719 55.72203125 37.12886719 55.72203125 37.1328125 56.96875 C37 59 37 59 36 60 C33.41810554 60.10091475 30.863535 60.13971499 28.28125 60.1328125 C27.12163757 60.13424759 27.12163757 60.13424759 25.93859863 60.13571167 C24.30102456 60.13639341 22.66344781 60.13453957 21.02587891 60.13037109 C18.51068079 60.12502271 15.99566127 60.13031626 13.48046875 60.13671875 C11.89322877 60.13605797 10.3059889 60.1347768 8.71875 60.1328125 C7.96146606 60.13483673 7.20418213 60.13686096 6.4239502 60.13894653 C1.11495132 60.11495132 1.11495132 60.11495132 0 59 C-0.09381302 57.15881971 -0.11743954 55.31402359 -0.11352539 53.47045898 C-0.11344986 52.28931015 -0.11337433 51.10816132 -0.11329651 49.89122009 C-0.10813522 48.6058284 -0.10297394 47.32043671 -0.09765625 45.99609375 C-0.0962413 44.68794205 -0.09482635 43.37979034 -0.09336853 42.03199768 C-0.0895441 38.54837141 -0.07971446 35.06478661 -0.06866455 31.58117676 C-0.05844882 28.02873292 -0.05387056 24.47628241 -0.04882812 20.92382812 C-0.03809212 13.94920168 -0.0210166 6.97460283 0 0 Z " fill="#F9FBFE" transform="translate(622,1020)"/>
<path d="M0 0 C11.88 0 23.76 0 36 0 C36 3.3 36 6.6 36 10 C35 11 35 11 32.86694336 11.11352539 C31.95050049 11.10828857 31.03405762 11.10305176 30.08984375 11.09765625 C29.10048828 11.09443359 28.11113281 11.09121094 27.09179688 11.08789062 C26.05087891 11.07951172 25.00996094 11.07113281 23.9375 11.0625 C22.89271484 11.05798828 21.84792969 11.05347656 20.77148438 11.04882812 C18.18096546 11.03699927 15.59047578 11.01906319 13 11 C13 15.29 13 19.58 13 24 C19.6 24 26.2 24 33 24 C33 27.63 33 31.26 33 35 C26.4 35 19.8 35 13 35 C13 39.29 13 43.58 13 48 C14.64871094 47.98839844 16.29742188 47.97679687 17.99609375 47.96484375 C20.14322804 47.95546762 22.29036355 47.94636723 24.4375 47.9375 C25.52611328 47.92912109 26.61472656 47.92074219 27.73632812 47.91210938 C28.77080078 47.90888672 29.80527344 47.90566406 30.87109375 47.90234375 C31.82943115 47.89710693 32.78776855 47.89187012 33.77514648 47.88647461 C36 48 36 48 37 49 C37.07205511 50.68608966 37.08386068 52.37500659 37.0625 54.0625 C37.05347656 54.98160156 37.04445313 55.90070312 37.03515625 56.84765625 C37.02355469 57.55792969 37.01195312 58.26820313 37 59 C31.89136104 59.0246501 26.78275641 59.04283607 21.67407227 59.05493164 C19.93480832 59.05997204 18.19554864 59.0668043 16.45629883 59.07543945 C13.96174063 59.08751792 11.46723827 59.09323108 8.97265625 59.09765625 C8.19036148 59.10281754 7.40806671 59.10797882 6.60206604 59.11329651 C4.73432886 59.11349226 2.86670796 59.06199694 1 59 C0 58 0 58 -0.12025452 55.67784119 C-0.11803391 54.64969803 -0.11581329 53.62155487 -0.11352539 52.56225586 C-0.11344986 51.40112778 -0.11337433 50.23999969 -0.11329651 49.04368591 C-0.10813522 47.780168 -0.10297394 46.51665009 -0.09765625 45.21484375 C-0.0962413 43.92888809 -0.09482635 42.64293243 -0.09336853 41.31800842 C-0.08954418 37.89356557 -0.07971462 34.46916491 -0.06866455 31.04473877 C-0.05844864 27.55261822 -0.05381582 24.06049067 -0.04882812 20.56835938 C-0.03862247 13.71220228 -0.01905077 6.85616115 0 0 Z " fill="#FBFCFE" transform="translate(549,942)"/>
<path d="M0 0 C0.80370529 -0.00686325 1.60741058 -0.0137265 2.43547058 -0.02079773 C5.08932207 -0.03908346 7.74258347 -0.03522619 10.39648438 -0.02954102 C12.24206739 -0.03410162 14.0876487 -0.03940683 15.93322754 -0.04542542 C19.80011904 -0.05435973 23.66680405 -0.05192934 27.53369141 -0.04199219 C32.49052565 -0.03049566 37.44664824 -0.0507227 42.40338898 -0.07990932 C46.21409638 -0.09824852 50.02463247 -0.09798355 53.83537292 -0.0922718 C55.66302998 -0.09211834 57.49069847 -0.09818307 59.3183136 -0.11056328 C61.87282078 -0.12543057 64.42600323 -0.11482889 66.98046875 -0.09765625 C67.73591476 -0.10732422 68.49136078 -0.11699219 69.2696991 -0.12695312 C72.70867379 -0.07850778 74.65101427 0.15465743 77.45568848 2.21665955 C79.72296878 5.44851693 79.60823692 7.55870359 78.99023438 11.40405273 C76.15407291 14.45106691 74.46107926 15.33821495 70.30957031 15.91871643 C68.86481569 15.94537464 67.41955387 15.95022664 65.97460938 15.9375 C65.18211792 15.94611557 64.38962646 15.95473114 63.57312012 15.96360779 C60.96182297 15.98625183 58.35160029 15.97953261 55.74023438 15.97045898 C53.9208952 15.975695 52.10155874 15.98197139 50.28222656 15.98924255 C46.47252614 15.99964363 42.66319931 15.99508914 38.85351562 15.98046875 C33.97399023 15.96327443 29.09564166 15.98678529 24.21624756 16.02195835 C20.46037001 16.04392863 16.70477427 16.04249192 12.94885254 16.03419304 C11.1499299 16.03337344 9.35098658 16.04023844 7.55212402 16.05496407 C5.03596832 16.07240543 2.52193025 16.05787353 0.00585938 16.03515625 C-1.10553406 16.05269455 -1.10553406 16.05269455 -2.23937988 16.07058716 C-6.13609475 15.99908441 -7.88595628 15.49959815 -11.00683594 13.09117126 C-13.00976562 10.40405273 -13.00976562 10.40405273 -13.07226562 6.77905273 C-10.92435753 -0.04371417 -6.46874417 -0.03854678 0 0 Z " fill="#4887F7" transform="translate(652.009765625,848.595947265625)"/>
<path d="M0 0 C0.80370529 -0.00686325 1.60741058 -0.0137265 2.43547058 -0.02079773 C5.08932207 -0.03908346 7.74258347 -0.03522619 10.39648438 -0.02954102 C12.24206739 -0.03410162 14.0876487 -0.03940683 15.93322754 -0.04542542 C19.80011904 -0.05435973 23.66680405 -0.05192934 27.53369141 -0.04199219 C32.49052565 -0.03049566 37.44664824 -0.0507227 42.40338898 -0.07990932 C46.21409638 -0.09824852 50.02463247 -0.09798355 53.83537292 -0.0922718 C55.66302998 -0.09211834 57.49069847 -0.09818307 59.3183136 -0.11056328 C61.87282078 -0.12543057 64.42600323 -0.11482889 66.98046875 -0.09765625 C67.73591476 -0.10732422 68.49136078 -0.11699219 69.2696991 -0.12695312 C72.70867379 -0.07850778 74.65101427 0.15465743 77.45568848 2.21665955 C79.72296878 5.44851693 79.60823692 7.55870359 78.99023438 11.40405273 C76.15407291 14.45106691 74.46107926 15.33821495 70.30957031 15.91871643 C68.86481569 15.94537464 67.41955387 15.95022664 65.97460938 15.9375 C65.18211792 15.94611557 64.38962646 15.95473114 63.57312012 15.96360779 C60.96182297 15.98625183 58.35160029 15.97953261 55.74023438 15.97045898 C53.9208952 15.975695 52.10155874 15.98197139 50.28222656 15.98924255 C46.47252614 15.99964363 42.66319931 15.99508914 38.85351562 15.98046875 C33.97399023 15.96327443 29.09564166 15.98678529 24.21624756 16.02195835 C20.46037001 16.04392863 16.70477427 16.04249192 12.94885254 16.03419304 C11.1499299 16.03337344 9.35098658 16.04023844 7.55212402 16.05496407 C5.03596832 16.07240543 2.52193025 16.05787353 0.00585938 16.03515625 C-1.10553406 16.05269455 -1.10553406 16.05269455 -2.23937988 16.07058716 C-6.13609475 15.99908441 -7.88595628 15.49959815 -11.00683594 13.09117126 C-13.00976562 10.40405273 -13.00976562 10.40405273 -13.07226562 6.77905273 C-10.92435753 -0.04371417 -6.46874417 -0.03854678 0 0 Z " fill="#468AF7" transform="translate(652.009765625,786.595947265625)"/>
<path d="M0 0 C0.80370529 -0.00686325 1.60741058 -0.0137265 2.43547058 -0.02079773 C5.08932207 -0.03908346 7.74258347 -0.03522619 10.39648438 -0.02954102 C12.24206739 -0.03410162 14.0876487 -0.03940683 15.93322754 -0.04542542 C19.80011904 -0.05435973 23.66680405 -0.05192934 27.53369141 -0.04199219 C32.49052565 -0.03049566 37.44664824 -0.0507227 42.40338898 -0.07990932 C46.21409638 -0.09824852 50.02463247 -0.09798355 53.83537292 -0.0922718 C55.66302998 -0.09211834 57.49069847 -0.09818307 59.3183136 -0.11056328 C61.87282078 -0.12543057 64.42600323 -0.11482889 66.98046875 -0.09765625 C67.73591476 -0.10732422 68.49136078 -0.11699219 69.2696991 -0.12695312 C72.70867379 -0.07850778 74.65101427 0.15465743 77.45568848 2.21665955 C79.72296878 5.44851693 79.60823692 7.55870359 78.99023438 11.40405273 C76.15407291 14.45106691 74.46107926 15.33821495 70.30957031 15.91871643 C68.86481569 15.94537464 67.41955387 15.95022664 65.97460938 15.9375 C65.18211792 15.94611557 64.38962646 15.95473114 63.57312012 15.96360779 C60.96182297 15.98625183 58.35160029 15.97953261 55.74023438 15.97045898 C53.9208952 15.975695 52.10155874 15.98197139 50.28222656 15.98924255 C46.47252614 15.99964363 42.66319931 15.99508914 38.85351562 15.98046875 C33.97399023 15.96327443 29.09564166 15.98678529 24.21624756 16.02195835 C20.46037001 16.04392863 16.70477427 16.04249192 12.94885254 16.03419304 C11.1499299 16.03337344 9.35098658 16.04023844 7.55212402 16.05496407 C5.03596832 16.07240543 2.52193025 16.05787353 0.00585938 16.03515625 C-1.10553406 16.05269455 -1.10553406 16.05269455 -2.23937988 16.07058716 C-6.13609475 15.99908441 -7.88595628 15.49959815 -11.00683594 13.09117126 C-13.00976562 10.40405273 -13.00976562 10.40405273 -13.07226562 6.77905273 C-10.92435753 -0.04371417 -6.46874417 -0.03854678 0 0 Z " fill="#468CF8" transform="translate(652.009765625,724.595947265625)"/>
<path d="M0 0 C15.18 0 30.36 0 46 0 C46 3.63 46 7.26 46 11 C40.72 11 35.44 11 30 11 C30.00785522 13.12779907 30.00785522 13.12779907 30.01586914 15.29858398 C30.03391309 20.54092787 30.04542978 25.783269 30.05493164 31.02563477 C30.05997325 33.29842591 30.06680637 35.5712138 30.07543945 37.84399414 C30.08751261 41.10303551 30.09322987 44.36203417 30.09765625 47.62109375 C30.10281754 48.64400009 30.10797882 49.66690643 30.11329651 50.72080994 C30.11340981 52.13215965 30.11340981 52.13215965 30.11352539 53.57202148 C30.115746 54.40475082 30.11796661 55.23748016 30.12025452 56.09544373 C30 58 30 58 29 59 C25.04 59 21.08 59 17 59 C17 43.16 17 27.32 17 11 C11.72 11 6.44 11 1 11 C0.67 10.67 0.34 10.34 0 10 C0 6.7 0 3.4 0 0 Z " fill="#F9FAFE" transform="translate(651,942)"/>
<path d="M0 0 C2.875 0.625 2.875 0.625 5.3125 2.6875 C7.42139994 6.65223188 7.06647269 8.30535371 5.875 12.625 C3.78399299 15.41411745 1.30999172 17.70678554 -1.25 20.0625 C-2.63200535 21.38353928 -4.01223969 22.70643398 -5.390625 24.03125 C-6.37385742 24.96710937 -6.37385742 24.96710937 -7.37695312 25.921875 C-9.37807579 27.87157217 -11.2117786 29.91663432 -13 32.0625 C-15.4312186 34.8926878 -17.95019803 37.58426464 -20.625 40.1875 C-21.66140625 41.21037109 -21.66140625 41.21037109 -22.71875 42.25390625 C-25.37218172 43.76584543 -27.12209783 44.12592926 -30.13574219 43.50463867 C-34.72819106 41.47388348 -38.05341048 37.54713832 -41.5 34 C-42.31855469 33.20464844 -43.13710938 32.40929687 -43.98046875 31.58984375 C-50.52078101 24.98445375 -50.52078101 24.98445375 -51.296875 20.72265625 C-51.125 17.625 -51.125 17.625 -49 14.6875 C-45.79367801 12.38731248 -44.93641723 12.04512411 -41.125 12.625 C-38.51953125 14.5234375 -38.51953125 14.5234375 -35.9375 17 C-35.07769531 17.81210937 -34.21789062 18.62421875 -33.33203125 19.4609375 C-31.92318354 20.84235632 -30.52020067 22.22979933 -29.125 23.625 C-25.46285619 23.34003029 -23.83873609 21.62830983 -21.4453125 18.984375 C-20.76339844 18.24316406 -20.08148437 17.50195312 -19.37890625 16.73828125 C-18.32509766 15.56845703 -18.32509766 15.56845703 -17.25 14.375 C-5.11361294 1.02272259 -5.11361294 1.02272259 0 0 Z " fill="#4B8CF7" transform="translate(614.125,773.375)"/>
<path d="M0 0 C15.18 0 30.36 0 46 0 C46 3.3 46 6.6 46 10 C40.39 10 34.78 10 29 10 C29 26.17 29 42.34 29 59 C25.04 59 21.08 59 17 59 C17 43.16 17 27.32 17 11 C11.72 11 6.44 11 1 11 C0.67 10.67 0.34 10.34 0 10 C0 6.7 0 3.4 0 0 Z " fill="#FDFDFE" transform="translate(377,942)"/>
<path d="M0 0 C3.4375 0.625 3.4375 0.625 5.9375 2.6875 C7.95054745 6.62971793 7.5666037 8.35802228 6.4375 12.625 C4.57806381 15.32872854 2.33180145 17.54906555 -0.01171875 19.8359375 C-0.66195511 20.48954254 -1.31219147 21.14314758 -1.98213196 21.81655884 C-3.35606264 23.1901914 -4.73745109 24.55640008 -6.12573242 25.91552734 C-8.24501806 27.99511139 -10.33336495 30.10247831 -12.41992188 32.21484375 C-13.76127243 33.54863562 -15.10431665 34.88072684 -16.44921875 36.2109375 C-17.07132736 36.84003021 -17.69343597 37.46912292 -18.33439636 38.11727905 C-21.9070137 41.57625275 -24.34417042 43.55499047 -29.5625 43.625 C-31.4765625 42.61328125 -31.4765625 42.61328125 -33.1875 40.9375 C-34.18330078 39.97457031 -34.18330078 39.97457031 -35.19921875 38.9921875 C-35.97910156 38.21101562 -36.75898437 37.42984375 -37.5625 36.625 C-38.60850939 35.64611601 -39.65683757 34.66970603 -40.70703125 33.6953125 C-41.80604507 32.6524705 -42.90370223 31.60819691 -44 30.5625 C-44.53254395 30.06854736 -45.06508789 29.57459473 -45.61376953 29.06567383 C-48.1019116 26.62951918 -49.50308066 24.81781456 -50.53515625 21.46875 C-50.5625 18.625 -50.5625 18.625 -48.5625 15.1875 C-45.5625 12.625 -45.5625 12.625 -42.19921875 12.64453125 C-37.8332865 13.82159784 -36.32592438 15.38153624 -33.375 18.75 C-31.02211347 21.54546001 -31.02211347 21.54546001 -28.5625 23.625 C-24.89846222 23.3491921 -23.25573004 21.61707668 -20.84765625 18.984375 C-20.16123047 18.24316406 -19.47480469 17.50195312 -18.76757812 16.73828125 C-18.06052734 15.95839844 -17.35347656 15.17851563 -16.625 14.375 C-13.93991296 11.45610612 -11.25207921 8.53975495 -8.5625 5.625 C-8.06999756 5.08375488 -7.57749512 4.54250977 -7.07006836 3.98486328 C-4.58280519 1.34541485 -3.72039556 0.65270097 0 0 Z " fill="#488EF8" transform="translate(613.5625,711.375)"/>
<path d="M0 0 C16.09638554 0 16.09638554 0 21 4 C25.89381392 9.50554066 25.47266009 15.22361333 25.53125 22.37890625 C24.75346027 27.68045828 22.37128855 30.73155809 18.5 34.3125 C12.54514175 38.33202932 7.57675175 37 0 37 C0 24.79 0 12.58 0 0 Z " fill="#4B87F7" transform="translate(502,953)"/>
<path d="M0 0 C1.08087891 -0.02900391 2.16175781 -0.05800781 3.27539062 -0.08789062 C9.49000854 -0.13748549 13.60076963 -0.1112501 18.1875 4.3125 C19.46556656 6.9689772 19.55174289 9.39855691 19.1875 12.3125 C17.42285939 15.17243478 16.19184303 16.81032849 13.1875 18.3125 C8.75639335 18.63792291 4.31656855 18.63705369 -0.125 18.6875 C-1.9802832 18.74357422 -1.9802832 18.74357422 -3.87304688 18.80078125 C-14.05718041 18.89981658 -14.05718041 18.89981658 -17.1328125 16.0078125 C-19.35257491 12.44586817 -19.47595787 10.4406823 -18.8125 6.3125 C-14.14537712 -1.0905225 -7.95017125 0.0703555 0 0 Z " fill="#4A8AF7" transform="translate(589.8125,840.6875)"/>
<path d="M0 0 C12.02463194 -0.60730464 12.02463194 -0.60730464 16.3125 2.0625 C18.43292123 5.75360363 18.68613138 7.80697489 18 12 C16.41796875 14.19921875 16.41796875 14.19921875 14 16 C9.2805118 16.53387876 4.76525513 16.17649093 0 16 C0 10.72 0 5.44 0 0 Z " fill="#4582F6" transform="translate(680,1031)"/>
<path d="M0 0 C2.3125 1.4375 2.3125 1.4375 4 4 C4.65554947 8.3776137 4.92733316 12.34889462 2.71875 16.28125 C1 18 1 18 -2.9375 18.5 C-5.7165612 18.3259888 -7.00729887 17.99598562 -9.5 16.625 C-11.83112113 12.54553802 -11.77761091 8.58180548 -11 4 C-7.78309122 -0.396442 -5.20528576 -1.61115988 0 0 Z " fill="#4592F9" transform="translate(651,627)"/>
<path d="M0 0 C0.33 0 0.66 0 1 0 C1.33 19.14 1.66 38.28 2 58 C5.63 58 9.26 58 13 58 C13.33 45.79 13.66 33.58 14 21 C15.32 22.65 16.64 24.3 18 26 C17.67 26.66 17.34 27.32 17 28 C16.67 27.67 16.34 27.34 16 27 C15.97086928 31.37498593 15.95315714 35.74994674 15.9375 40.125 C15.92493164 41.98125 15.92493164 41.98125 15.91210938 43.875 C15.90888672 45.07382813 15.90566406 46.27265625 15.90234375 47.5078125 C15.89710693 48.60754395 15.89187012 49.70727539 15.88647461 50.84033203 C15.9991442 53.97618105 16.41373624 56.92059383 17 60 C12.99335077 61.42645103 9.02309636 60.8487666 4.875 60.5 C-0.19859985 59.81881342 -0.19859985 59.81881342 -5 61 C-9.78711726 61.24595465 -14.32456486 61.09589116 -19 60 C-21.47303594 57.66290261 -22.52291376 55.35920994 -23 52 C-22.67 51.01 -22.34 50.02 -22 49 C-20.68 51.97 -19.36 54.94 -18 58 C-13.71 58.33 -9.42 58.66 -5 59 C-5.66 57.35 -6.32 55.7 -7 54 C-6.67 53.01 -6.34 52.02 -6 51 C-5.34 51.99 -4.68 52.98 -4 54 C-1.89226481 52.30275057 -1.07139699 51.41129156 -0.60127258 48.70307922 C-0.59016953 47.80373154 -0.57906647 46.90438385 -0.56762695 45.9777832 C-0.54783279 44.95695145 -0.52803864 43.93611969 -0.50764465 42.88435364 C-0.50125473 41.78427475 -0.49486481 40.68419586 -0.48828125 39.55078125 C-0.47033005 38.4230278 -0.45237885 37.29527435 -0.43388367 36.13334656 C-0.37964147 32.5264359 -0.34583965 28.91965862 -0.3125 25.3125 C-0.27933929 22.86912201 -0.24485081 20.42576165 -0.20898438 17.98242188 C-0.12390701 11.98840084 -0.05561608 5.99436284 0 0 Z " fill="#1F68F6" transform="translate(439,1021)"/>
<path d="M0 0 C1.69946788 2.54920182 2.56531331 4.32099564 3.5078125 7.16015625 C3.77207031 7.95357422 4.03632813 8.74699219 4.30859375 9.56445312 C4.57800781 10.38880859 4.84742188 11.21316406 5.125 12.0625 C5.40214844 12.89072266 5.67929687 13.71894531 5.96484375 14.57226562 C8 20.73287408 8 20.73287408 8 23 C3.05 23 -1.9 23 -7 23 C-2.91489362 2.91489362 -2.91489362 2.91489362 0 0 Z " fill="#4884F6" transform="translate(405,1034)"/>
<path d="M0 0 C1.77118892 2.65678338 2.58611664 4.46372565 3.5078125 7.44921875 C3.77207031 8.29677734 4.03632812 9.14433594 4.30859375 10.01757812 C4.57800781 10.89865234 4.84742188 11.77972656 5.125 12.6875 C5.40214844 13.58017578 5.67929687 14.47285156 5.96484375 15.39257812 C6.64754981 17.59371664 7.32434559 19.79668672 8 22 C3.05 22 -1.9 22 -7 22 C-5.04910592 14.48905779 -2.76288395 7.25081726 0 0 Z " fill="#4E87F6" transform="translate(525,1034)"/>
<path d="M0 0 C0.66 0 1.32 0 2 0 C2 20.13 2 40.26 2 61 C-3.625 63.25 -3.625 63.25 -7.8125 62.125 C-8.60269531 61.92132812 -9.39289062 61.71765625 -10.20703125 61.5078125 C-10.79871094 61.34023438 -11.39039063 61.17265625 -12 61 C-12 60.67 -12 60.34 -12 60 C-6.06 59.505 -6.06 59.505 0 59 C0 39.53 0 20.06 0 0 Z " fill="#065AF5" transform="translate(644,941)"/>
<path d="M0 0 C1.77118892 2.65678338 2.58611664 4.46372565 3.5078125 7.44921875 C3.77207031 8.29677734 4.03632812 9.14433594 4.30859375 10.01757812 C4.57800781 10.89865234 4.84742188 11.77972656 5.125 12.6875 C5.40214844 13.58017578 5.67929687 14.47285156 5.96484375 15.39257812 C6.64754981 17.59371664 7.32434559 19.79668672 8 22 C3.05 22 -1.9 22 -7 22 C-6.34 20.68 -5.68 19.36 -5 18 C-5 18.99 -5 19.98 -5 21 C-1.37 21 2.26 21 6 21 C4.35 16.71 2.7 12.42 1 8 C0.01 8 -0.98 8 -2 8 C-1.125 2.25 -1.125 2.25 0 0 Z " fill="#2A70F4" transform="translate(525,1034)"/>
<path d="M0 0 C3.47260913 -0.43641407 4.72508708 -0.20031136 7.60546875 1.8984375 C8.45753906 2.71570313 9.30960938 3.53296875 10.1875 4.375 C11.04730469 5.18710937 11.90710938 5.99921875 12.79296875 6.8359375 C14.20181646 8.21735632 15.60479933 9.60479933 17 11 C19.60280568 10.67958603 19.60280568 10.67958603 22 10 C21 13 21 13 19.234375 13.98828125 C17 14 17 14 14.703125 11.98046875 C13.89359375 11.05878906 13.0840625 10.13710938 12.25 9.1875 C7.90392643 4.57705104 5.26789978 2.69643331 -1 2 C-0.67 1.34 -0.34 0.68 0 0 Z " fill="#2F7BF6" transform="translate(568,786)"/>
<path d="M0 0 C1.875 0.125 1.875 0.125 4 1 C5.125 3.9375 5.125 3.9375 6 7 C6.66 7.66 7.32 8.32 8 9 C8.6875 12.0625 8.6875 12.0625 9 15 C8 16 8 16 4.83984375 16.09765625 C3.55207031 16.08605469 2.26429688 16.07445312 0.9375 16.0625 C-0.35285156 16.05347656 -1.64320313 16.04445313 -2.97265625 16.03515625 C-3.97167969 16.02355469 -4.97070312 16.01195312 -6 16 C-6 15.67 -6 15.34 -6 15 C0.435 14.505 0.435 14.505 7 14 C5.52674951 10.31687378 4.6488294 8.27113767 2.375 5.3125 C0 2.21676301 0 2.21676301 0 0 Z " fill="#2A6EF7" transform="translate(706,1065)"/>
<path d="M0 0 C3.36932864 4.49243819 3.37007917 6.95052266 3.1875 12.25 C3.16719727 13.36761719 3.16719727 13.36761719 3.14648438 14.5078125 C3.11127204 16.33885416 3.05746851 18.16952169 3 20 C2.01 20.33 1.02 20.66 0 21 C0 14.07 0 7.14 0 0 Z " fill="#5C91F6" transform="translate(137,929)"/>
<path d="M0 0 C1 3 1 3 0 5.4375 C-2.69893134 8.89550577 -4.99871559 10.17485273 -9 12 C-11.4375 11.75 -11.4375 11.75 -13 11 C-12.360625 10.896875 -11.72125 10.79375 -11.0625 10.6875 C-10.0415625 10.3471875 -10.0415625 10.3471875 -9 10 C-8.67 9.01 -8.34 8.02 -8 7 C-6.15234375 5.17578125 -6.15234375 5.17578125 -3.9375 3.3125 C-2.83728516 2.37857422 -2.83728516 2.37857422 -1.71484375 1.42578125 C-1.14894531 0.95527344 -0.58304688 0.48476562 0 0 Z " fill="#4482F6" transform="translate(608,1069)"/>
<path d="M0 0 C1.20316153 3.6094846 0.69381611 4.56745742 -0.58203125 8.0703125 C-0.93716797 9.04871094 -1.29230469 10.02710938 -1.65820312 11.03515625 C-2.03912109 12.05480469 -2.42003906 13.07445312 -2.8125 14.125 C-3.36647461 15.66607422 -3.36647461 15.66607422 -3.93164062 17.23828125 C-6.73919972 24.86959986 -6.73919972 24.86959986 -9 26 C-8.80664062 25.35933594 -8.61328125 24.71867187 -8.4140625 24.05859375 C-7.87410785 22.26498201 -7.33645693 20.47067558 -6.80078125 18.67578125 C-6.32556606 17.08786708 -5.8456286 15.50133359 -5.35546875 13.91796875 C-4.39083505 10.7325956 -4 8.38421621 -4 5 C-3.01 5 -2.02 5 -1 5 C-0.67 3.35 -0.34 1.7 0 0 Z " fill="#2E76F6" transform="translate(396,1022)"/>
<path d="M0 0 C0.6875 1.8125 0.6875 1.8125 1 4 C-0.1875 5.75 -0.1875 5.75 -2 7 C-3.32 7 -4.64 7 -6 7 C-4.02 9.97 -4.02 9.97 -2 13 C-2.33 13.66 -2.66 14.32 -3 15 C-3.86657116 13.90554162 -4.71792724 12.79902219 -5.5625 11.6875 C-6.03816406 11.07261719 -6.51382813 10.45773437 -7.00390625 9.82421875 C-7.33261719 9.22222656 -7.66132812 8.62023438 -8 8 C-6.6636586 3.99097581 -4.50572968 3.19108105 -1 1 C-0.67 0.67 -0.34 0.34 0 0 Z " fill="#3075F5" transform="translate(708,1050)"/>
<path d="M0 0 C4.43379675 2.21689838 6.46636932 4.77728219 9 9 C8.67 9.66 8.34 10.32 8 11 C6.68 10.34 5.36 9.68 4 9 C4 7.35 4 5.7 4 4 C3.34 4 2.68 4 2 4 C2 5.65 2 7.3 2 9 C1.01 9.495 1.01 9.495 0 10 C0 6.7 0 3.4 0 0 Z " fill="#528AF7" transform="translate(454,1047)"/>
<path d="M0 0 C2.98246814 2.98246814 3.20219038 6.52848231 4.12109375 10.56640625 C4.55615234 11.77103516 4.55615234 11.77103516 5 13 C5.99 13.33 6.98 13.66 8 14 C8 16.64 8 19.28 8 22 C5.18916193 19.18916193 4.22856114 15.78414855 2.875 12.125 C2.59785156 11.40441406 2.32070313 10.68382812 2.03515625 9.94140625 C1.77347656 9.24144531 1.51179688 8.54148437 1.2421875 7.8203125 C0.88423096 6.86535889 0.88423096 6.86535889 0.51904297 5.89111328 C0 4 0 4 0 0 Z " fill="#367BF6" transform="translate(415,1025)"/>
<path d="M0 0 C2.35348271 2.35348271 2.36468749 3.21466691 2.6875 6.4375 C2.77386719 7.21996094 2.86023438 8.00242187 2.94921875 8.80859375 C3 11 3 11 2 14 C1.34 14 0.68 14 0 14 C-0.33 14.99 -0.66 15.98 -1 17 C-1.33 16.34 -1.66 15.68 -2 15 C-1.67 14.01 -1.34 13.02 -1 12 C-0.77674186 9.94106379 -0.59294241 7.87766347 -0.4375 5.8125 C-0.35371094 4.72582031 -0.26992188 3.63914062 -0.18359375 2.51953125 C-0.12300781 1.68808594 -0.06242188 0.85664062 0 0 Z " fill="#397CF7" transform="translate(711,1033)"/>
<path d="M0 0 C0.33 0 0.66 0 1 0 C1.22238211 7.30154591 1.1852294 13.9842635 -1 21 C-1.99 21.33 -2.98 21.66 -4 22 C-3.79503906 21.24976563 -3.59007812 20.49953125 -3.37890625 19.7265625 C-1.64572339 13.14212617 -0.43604086 6.79622301 0 0 Z " fill="#2E77F6" transform="translate(541,966)"/>
<path d="M0 0 C3.875 3.75 3.875 3.75 5 6 C7.8159849 6.46898963 7.8159849 6.46898963 11.0625 6.625 C12.71958984 6.73714844 12.71958984 6.73714844 14.41015625 6.8515625 C15.26480469 6.90054687 16.11945313 6.94953125 17 7 C17 7.33 17 7.66 17 8 C14.73020335 8.10794277 12.45894804 8.18556176 10.1875 8.25 C8.92292969 8.29640625 7.65835937 8.3428125 6.35546875 8.390625 C3 8 3 8 1.05078125 6.234375 C0 4 0 4 0 0 Z " fill="#256BF7" transform="translate(473,1073)"/>
<path d="M0 0 C0.33 0 0.66 0 1 0 C0.47148259 6.55361587 -0.46360365 12.88352268 -3 19 C-3.66 19.33 -4.32 19.66 -5 20 C-4.88557539 18.39504433 -4.75805306 16.79101881 -4.625 15.1875 C-4.55539062 14.29417969 -4.48578125 13.40085937 -4.4140625 12.48046875 C-4 10 -4 10 -2 7 C-1.29187186 4.67891331 -0.61975848 2.34622853 0 0 Z " fill="#377DF9" transform="translate(879,987)"/>
<path d="M0 0 C4.02550319 1.3418344 4.88285636 3.4227573 7 7 C7 7.66 7 8.32 7 9 C6.01 9 5.02 9 4 9 C2 7 2 7 0 4 C0 2.68 0 1.36 0 0 Z " fill="#3D7DF5" transform="translate(608,967)"/>
<path d="M0 0 C0.33 0 0.66 0 1 0 C1 1.98 1 3.96 1 6 C0.34 6 -0.32 6 -1 6 C-1.66 7.65 -2.32 9.3 -3 11 C-3.66 11 -4.32 11 -5 11 C-5.33 11.99 -5.66 12.98 -6 14 C-6.33 13.01 -6.66 12.02 -7 11 C-5.7120272 9.29803595 -4.37013339 7.63654821 -3 6 C-1.95548562 4.02288349 -0.94301862 2.02749004 0 0 Z " fill="#4D87F6" transform="translate(356,1050)"/>
<path d="M0 0 C3 4 3 4 3.14453125 6.0703125 C2.22222222 11.77777778 2.22222222 11.77777778 0 14 C0 9.38 0 4.76 0 0 Z " fill="#548BF5" transform="translate(323,1050)"/>
<path d="M0 0 C-0.33 0.99 -0.66 1.98 -1 3 C-4.14308279 4.32816109 -6.50863624 3.87284094 -9.75 3.0625 C-10.54921875 2.86785156 -11.3484375 2.67320312 -12.171875 2.47265625 C-12.77515625 2.31667969 -13.3784375 2.16070313 -14 2 C-14 1.67 -14 1.34 -14 1 C-12.04175306 0.83232136 -10.08339945 0.66588795 -8.125 0.5 C-6.48917969 0.36078125 -6.48917969 0.36078125 -4.8203125 0.21875 C-3.21670436 0.09437042 -1.60842449 0 0 0 Z " fill="#2C73F7" transform="translate(646,1000)"/>
<path d="M0 0 C0.33 0.66 0.66 1.32 1 2 C-0.73407158 7.20221474 -2.34133287 9.85225194 -7 13 C-7.66 12.67 -8.32 12.34 -9 12 C-8.60167969 11.55269531 -8.20335937 11.10539063 -7.79296875 10.64453125 C-4.82015875 7.25220061 -2.1717806 3.98159776 0 0 Z " fill="#2F7AF8" transform="translate(762,891)"/>
<path d="M0 0 C0.33 0 0.66 0 1 0 C0.88590318 2.10478604 0.75834639 4.20884577 0.625 6.3125 C0.52058594 8.07013672 0.52058594 8.07013672 0.4140625 9.86328125 C0 13 0 13 -2 16 C-2 12.37 -2 8.74 -2 5 C-1.34 5 -0.68 5 0 5 C0 3.35 0 1.7 0 0 Z " fill="#367CF9" transform="translate(882,970)"/>
<path d="M0 0 C1.98 0 3.96 0 6 0 C5.125 4.75 5.125 4.75 4 7 C3.34 7 2.68 7 2 7 C1.34 4.69 0.68 2.38 0 0 Z " fill="#3A7DF3" transform="translate(337,1048)"/>
<path d="M0 0 C0.99 0.33 1.98 0.66 3 1 C3 1.66 3 2.32 3 3 C3.66 3 4.32 3 5 3 C4.67 4.98 4.34 6.96 4 9 C1.47740939 7.02579865 1.0070192 6.03254358 0.3125 2.8125 C0.209375 1.884375 0.10625 0.95625 0 0 Z " fill="#4181F6" transform="translate(443,978)"/>
<path d="M0 0 C0.33 0 0.66 0 1 0 C1.33 1.98 1.66 3.96 2 6 C-1.41139003 7.09651823 -4.20655581 6.94215473 -7.75 6.5625 C-8.73484375 6.46066406 -9.7196875 6.35882812 -10.734375 6.25390625 C-11.48203125 6.17011719 -12.2296875 6.08632812 -13 6 C-13 5.67 -13 5.34 -13 5 C-7.06 4.505 -7.06 4.505 -1 4 C-0.67 2.68 -0.34 1.36 0 0 Z " fill="#2E6FF6" transform="translate(454,1075)"/>
<path d="M0 0 C0 0.33 0 0.66 0 1 C1.65 1.33 3.3 1.66 5 2 C5 2.33 5 2.66 5 3 C1.04 3 -2.92 3 -7 3 C-7.33 2.34 -7.66 1.68 -8 1 C-5.07175348 0.02391783 -3.04386724 -0.08226668 0 0 Z " fill="#57A8FE" transform="translate(744,364)"/>
<path d="M0 0 C0.66 0.33 1.32 0.66 2 1 C-0.625 6.75 -0.625 6.75 -4 9 C-3.35455571 5.51460083 -1.89865603 2.97180943 0 0 Z " fill="#4380F6" transform="translate(576,1032)"/>
<path d="M0 0 C0.33 0.66 0.66 1.32 1 2 C0.34 2 -0.32 2 -1 2 C-1 2.66 -1 3.32 -1 4 C-3.31 4.33 -5.62 4.66 -8 5 C-8 4.34 -8 3.68 -8 3 C-5.36 2.01 -2.72 1.02 0 0 Z " fill="#367CF7" transform="translate(751,904)"/>
<path d="M0 0 C0.99 0 1.98 0 3 0 C2.50168276 3.68754757 1.89932357 5.60490662 -1 8 C-0.67 5.36 -0.34 2.72 0 0 Z " fill="#449CFE" transform="translate(145,474)"/>
<path d="M0 0 C0.99 0 1.98 0 3 0 C3.33 1.65 3.66 3.3 4 5 C3.01 5 2.02 5 1 5 C0.67 5.66 0.34 6.32 0 7 C0 4.69 0 2.38 0 0 Z " fill="#4F89F5" transform="translate(683,1059)"/>
<path d="M0 0 C0.6875 1.8125 0.6875 1.8125 1 4 C-0.4375 5.75 -0.4375 5.75 -2 7 C-2.99 6.67 -3.98 6.34 -5 6 C-3.35 4.02 -1.7 2.04 0 0 Z " fill="#3C7CF8" transform="translate(708,1050)"/>
<path d="M0 0 C3.08089673 2.77280706 4.68775452 5.06326356 6 9 C3.525 8.01 3.525 8.01 1 7 C0.67 4.69 0.34 2.38 0 0 Z " fill="#2F74F6" transform="translate(457,1049)"/>
<path d="M0 0 C1.25541557 3.76624671 0.37061958 5.37188934 -1 9 C-1.99 9 -2.98 9 -4 9 C-4 7.68 -4 6.36 -4 5 C-3.01 5 -2.02 5 -1 5 C-0.67 3.35 -0.34 1.7 0 0 Z " fill="#4080F6" transform="translate(396,1022)"/>
<path d="M0 0 C1 2 1 2 0.3125 4.5625 C-0.120625 5.366875 -0.55375 6.17125 -1 7 C-2.32 7.33 -3.64 7.66 -5 8 C-3.35 5.36 -1.7 2.72 0 0 Z " fill="#3378F7" transform="translate(476,989)"/>
<path d="M0 0 C0.66 0.33 1.32 0.66 2 1 C0.9024777 3.99324263 0.32317108 4.84610901 -2.625 6.25 C-3.40875 6.4975 -4.1925 6.745 -5 7 C-3.35 4.69 -1.7 2.38 0 0 Z " fill="#357AF6" transform="translate(536,988)"/>
<path d="M0 0 C0 0.66 0 1.32 0 2 C-3.465 3.485 -3.465 3.485 -7 5 C-7 4.01 -7 3.02 -7 2 C-4.35261084 0.5393715 -3.10551666 0 0 0 Z " fill="#429FFE" transform="translate(235,376)"/>
<path d="M0 0 C4.875 4.75 4.875 4.75 6 7 C1.32307692 5.52307692 1.32307692 5.52307692 -0.3125 2.875 C-0.539375 2.25625 -0.76625 1.6375 -1 1 C-0.67 0.67 -0.34 0.34 0 0 Z " fill="#347BF8" transform="translate(534,896)"/>
</svg>
